<svg width="238" height="40" viewBox="0 0 238 40" fill="none" xmlns="http://www.w3.org/2000/svg">
<path d="M1 40V0H14.779C17.8895 0 20.2633 0.190996 21.9004 0.572988C24.1924 1.1005 26.1478 2.05548 27.7667 3.43793C29.8768 5.22055 31.4502 7.50341 32.487 10.2865C33.5421 13.0514 34.0696 16.2165 34.0696 19.7817C34.0696 22.8195 33.7149 25.5116 33.0055 27.8581C32.296 30.2046 31.3865 32.151 30.2769 33.6971C29.1673 35.2251 27.9486 36.4347 26.6207 37.3261C25.311 38.1992 23.7194 38.8631 21.8458 39.3179C19.9904 39.7726 17.8531 40 15.4338 40H1ZM6.29331 35.2797H14.8336C17.4711 35.2797 19.5357 35.0341 21.0273 34.543C22.5371 34.0518 23.7376 33.3606 24.6289 32.4693C25.884 31.2142 26.8572 29.5316 27.5484 27.4216C28.2578 25.2933 28.6125 22.7194 28.6125 19.6999C28.6125 15.5161 27.9213 12.3056 26.5389 10.0682C25.1746 7.81264 23.5102 6.30287 21.5457 5.53888C20.1269 4.99318 17.844 4.72033 14.6971 4.72033H6.29331V35.2797Z" fill="#202024"/>
<path d="M41.4911 40V0L70.4134 0V4.72033H46.7844V16.9713H68.9127V21.6644H46.7844V35.2797H71.3411V40H41.4911Z" fill="#202024"/>
<path d="M90.0859 40L74.588 0H80.3179L90.7135 29.0587C91.5502 31.387 92.2506 33.5698 92.8145 35.6071C93.4329 33.4243 94.1514 31.2415 94.97 29.0587L105.775 0H111.177L95.5157 40H90.0859Z" fill="#202024"/>
<path d="M116.825 40V0H122.119V40H116.825Z" fill="#202024"/>
<path d="M127.085 40L142.446 0H148.149L164.52 40H158.49L153.824 27.8854H137.098L132.705 40H127.085ZM138.626 23.5744H152.187L148.012 12.4966C146.739 9.13142 145.793 6.36653 145.175 4.20191C144.665 6.76671 143.947 9.31332 143.019 11.8417L138.626 23.5744Z" fill="#202024"/>
<path d="M168.694 40V0H174.124L195.134 31.4052V0L200.209 0V40H194.779L173.769 8.56753V40H168.694Z" fill="#202024"/>
<path d="M219.308 0V35.2797H206.13V40H237.835V35.2797H224.602V0H219.308Z" fill="#202024"/>
</svg>
