<svg width="270" height="270" viewBox="0 0 270 270" fill="none" xmlns="http://www.w3.org/2000/svg">
<path fill-rule="evenodd" clip-rule="evenodd" d="M99.704 38.0249C46.1461 57.5184 18.5314 116.738 38.0249 170.296C57.5184 223.854 116.738 251.469 170.296 231.975C223.854 212.482 251.469 153.262 231.975 99.704C212.482 46.1461 153.262 18.5314 99.704 38.0249ZM36.9444 170.689C17.2337 116.535 45.1561 56.6551 99.3107 36.9444C153.465 17.2337 213.345 45.1561 233.056 99.3107C252.766 153.465 224.844 213.345 170.689 233.056C116.535 252.766 56.6551 224.844 36.9444 170.689Z" fill="#4552C8"/>
<path fill-rule="evenodd" clip-rule="evenodd" d="M102.014 44.3728C51.9624 62.5903 26.1554 117.934 44.3728 167.986C62.5903 218.038 117.934 243.845 167.986 225.627C218.038 207.41 243.845 152.066 225.627 102.014C207.41 51.9624 152.066 26.1554 102.014 44.3728ZM43.2923 168.379C24.8577 117.73 50.9724 61.727 101.621 43.2923C152.27 24.8577 208.273 50.9724 226.708 101.621C245.142 152.27 219.028 208.273 168.379 226.708C117.73 245.142 61.727 219.028 43.2923 168.379Z" fill="#4552C8"/>
<path fill-rule="evenodd" clip-rule="evenodd" d="M261.824 88.8399C287.318 158.883 251.203 236.33 181.16 261.824C111.117 287.318 33.6696 251.203 8.17601 181.16C-17.3175 111.117 18.7969 33.6696 88.8399 8.17601C158.883 -17.3175 236.33 18.7969 261.824 88.8399ZM180.177 259.123C248.728 234.172 284.073 158.374 259.123 89.823C234.172 21.2719 158.374 -14.0733 89.823 10.8773C21.2719 35.8278 -14.0733 111.626 10.8773 180.177C35.8278 248.728 111.626 284.073 180.177 259.123Z" fill="#4552C8"/>
<path d="M99.9995 65.7552L141.449 179.638L98.9085 195.122L104.454 210.359L206.799 173.108L201.253 157.871L158.536 173.419L117.086 59.5361L99.9995 65.7552Z" fill="#4552C8"/>
<path d="M75.919 230.233L69.5336 239.326L67.7223 238.054L70.091 230.104C70.3136 229.365 70.4839 228.815 70.602 228.453C70.2663 228.711 69.7638 229.084 69.0946 229.571L62.4745 234.369L60.8555 233.233L67.2409 224.139L68.4009 224.953L63.0565 232.565L71.0434 226.809L72.1289 227.571L69.3232 237.159L74.759 229.418L75.919 230.233Z" fill="#4552C8"/>
<path d="M54.951 228.575L53.875 227.573L57.1091 224.101L55.168 222.293C53.8961 221.108 53.2792 220.095 53.3173 219.253C53.3517 218.408 53.6461 217.688 54.2006 217.093C54.7862 216.464 55.5138 216.113 56.3835 216.039C57.2499 215.969 58.2653 216.477 59.43 217.562L62.5247 220.444L54.951 228.575ZM60.5964 220.357L58.6275 218.523C57.9509 217.893 57.3559 217.549 56.8426 217.492C56.3222 217.436 55.8295 217.657 55.3646 218.156C55.0477 218.496 54.8749 218.867 54.8463 219.269C54.8176 219.67 54.92 220.038 55.1536 220.373C55.3871 220.708 55.8459 221.194 56.5299 221.831L57.9719 223.175L60.5964 220.357ZM47.8464 221.957L46.7705 220.955L54.3442 212.824L55.4202 213.826L47.8464 221.957Z" fill="#4552C8"/>
<path d="M48.1603 205.774L39.3131 212.496L36.7772 209.159C36.3308 208.572 36.0181 208.102 35.839 207.749C35.5813 207.259 35.4434 206.79 35.4254 206.34C35.4034 205.894 35.5082 205.443 35.7398 204.988C35.9684 204.528 36.3019 204.132 36.7404 203.799C37.4928 203.227 38.3124 202.982 39.1992 203.063C40.082 203.148 40.9988 203.816 41.9496 205.067L43.6738 207.336L47.2707 204.603L48.1603 205.774ZM42.6298 208.129L40.8918 205.842C40.3171 205.086 39.7681 204.656 39.245 204.552C38.7218 204.448 38.2048 204.59 37.6938 204.978C37.3237 205.26 37.0797 205.594 36.9618 205.982C36.8369 206.369 36.8484 206.747 36.9963 207.117C37.0938 207.354 37.3443 207.738 37.7478 208.269L39.4675 210.532L42.6298 208.129Z" fill="#4552C8"/>
<path d="M42.0082 197.601L30.2997 199.743L29.4749 198.391L36.5938 188.723L37.466 190.153L35.2676 193.012L37.6867 196.979L41.1952 196.268L42.0082 197.601ZM36.4432 197.24L34.4819 194.024L32.4584 196.616C31.8445 197.405 31.3255 198.029 30.9016 198.489C31.5835 198.238 32.2914 198.04 33.0253 197.895L36.4432 197.24Z" fill="#4552C8"/>
<path d="M33.0362 188.615L32.0943 187.514C32.5337 187.181 32.8955 186.69 33.1798 186.04C33.4618 185.385 33.4355 184.714 33.1009 184.029C32.7597 183.329 32.3111 182.865 31.7551 182.636C31.1991 182.407 30.6668 182.416 30.1582 182.665C29.6087 182.933 29.2769 183.359 29.1628 183.943C29.0441 184.53 29.1642 185.191 29.5232 185.926L29.8323 186.56L28.6811 187.121C28.3842 186.513 28.123 186.064 27.8976 185.775C27.6676 185.488 27.3497 185.292 26.9439 185.186C26.5314 185.078 26.1412 185.114 25.7734 185.293C25.3375 185.506 25.0414 185.861 24.8851 186.359C24.7267 186.853 24.7882 187.388 25.0696 187.964C25.3155 188.469 25.6532 188.838 26.0826 189.073C26.5052 189.305 26.9586 189.387 27.4429 189.32C27.9226 189.254 28.2647 189.172 28.469 189.072L28.8012 190.479C26.5275 191.2 24.8954 190.546 23.9049 188.516C23.4285 187.54 23.3232 186.632 23.5889 185.794C23.8501 184.958 24.344 184.363 25.0706 184.009C26.0015 183.554 26.9385 183.642 27.8816 184.273C27.7742 183.696 27.8554 183.13 28.1251 182.577C28.3881 182.021 28.8216 181.596 29.4256 181.302C30.2839 180.883 31.1666 180.865 32.0736 181.249C32.9739 181.631 33.6921 182.371 34.2284 183.47C35.1502 185.359 34.7528 187.074 33.0362 188.615Z" fill="#4552C8"/>
<path d="M31.5056 178.068L21.1074 181.985L19.6297 178.063C19.3696 177.373 19.204 176.833 19.133 176.444C19.0257 175.901 19.0277 175.412 19.1388 174.976C19.2451 174.542 19.4743 174.139 19.8262 173.769C20.1763 173.394 20.6091 173.11 21.1245 172.915C22.0087 172.582 22.8642 172.581 23.6909 172.912C24.5129 173.245 25.201 174.147 25.755 175.618L26.7598 178.285L30.9871 176.692L31.5056 178.068ZM25.5327 178.747L24.5199 176.059C24.185 175.17 23.7817 174.601 23.3099 174.352C22.8382 174.103 22.3021 174.092 21.7015 174.318C21.2665 174.482 20.9372 174.733 20.7135 175.071C20.4834 175.406 20.3864 175.772 20.4225 176.169C20.4483 176.424 20.5788 176.863 20.814 177.487L21.8161 180.147L25.5327 178.747Z" fill="#4552C8"/>
<path d="M27.942 168.479L16.1092 167.19L15.7048 165.659L25.2872 158.425L25.7149 160.044L22.7919 162.157L23.9781 166.649L27.5434 166.97L27.942 168.479ZM22.7118 166.544L21.7501 162.902L19.0709 164.809C18.2573 165.39 17.5818 165.84 17.0443 166.159C17.7693 166.114 18.5042 166.127 19.2491 166.197L22.7118 166.544Z" fill="#4552C8"/>
<path d="M13.8822 157.842L12.7679 150.721L14.0634 150.518L14.9504 156.187L18.3352 155.657L17.9251 153.036C17.7736 152.068 17.7456 151.285 17.8413 150.687C17.9362 150.084 18.2138 149.57 18.6741 149.145C19.1294 148.721 19.6965 148.455 20.3755 148.349C20.9296 148.262 21.4684 148.306 21.9917 148.48C22.5092 148.65 22.9585 148.955 23.3396 149.397C23.7207 149.838 24.0034 150.648 24.1877 151.826L24.8603 156.125L13.8822 157.842ZM23.3974 154.865L22.9428 151.96C22.8201 151.176 22.5686 150.614 22.1882 150.275C21.8069 149.931 21.2968 149.808 20.6578 149.908C20.2035 149.98 19.8417 150.151 19.5723 150.423C19.3029 150.696 19.1495 151.039 19.1122 151.454C19.0748 151.869 19.1315 152.559 19.2823 153.522L19.5857 155.462L23.3974 154.865Z" fill="#4552C8"/>
<path d="M23.3128 145.908L11.9935 142.227L11.9107 140.645L22.7696 135.523L22.8571 137.195L19.5641 138.666L19.8068 143.305L23.2313 144.348L23.3128 145.908ZM18.5887 142.944L18.3919 139.182L15.3794 140.501C14.4643 140.903 13.711 141.206 13.1195 141.409C13.8384 141.513 14.5553 141.675 15.2702 141.896L18.5887 142.944Z" fill="#4552C8"/>
<path d="M22.9685 130.435L13.1766 130.03L13.0251 133.688L11.7149 133.633L12.0794 124.834L13.3895 124.888L13.2374 128.561L23.0294 128.966L22.9685 130.435Z" fill="#4552C8"/>
<path d="M12.3182 121.996L12.5353 120.541L17.2281 121.242L17.6198 118.618C17.8765 116.899 18.3625 115.817 19.0778 115.372C19.7938 114.922 20.5541 114.757 21.3587 114.877C22.2083 115.004 22.9097 115.405 23.4629 116.08C24.011 116.755 24.1676 117.879 23.9325 119.453L23.308 123.636L12.3182 121.996ZM22.2882 121.997L22.6855 119.336C22.8221 118.422 22.7685 117.737 22.5248 117.281C22.2769 116.82 21.8156 116.539 21.1409 116.439C20.6812 116.37 20.2777 116.438 19.9305 116.641C19.5834 116.845 19.3378 117.138 19.1939 117.52C19.05 117.902 18.909 118.555 18.771 119.48L18.48 121.429L22.2882 121.997ZM13.7519 112.393L13.969 110.938L24.9588 112.579L24.7417 114.033L13.7519 112.393Z" fill="#4552C8"/>
<path d="M25.6868 109.595L14.952 106.725L16.0286 102.698C16.2478 101.878 16.5332 101.251 16.8846 100.816C17.2325 100.376 17.6707 100.077 18.199 99.9201C18.7238 99.757 19.2328 99.7414 19.7258 99.8732C20.1847 99.9959 20.5834 100.236 20.9221 100.593C21.2607 100.95 21.4873 101.414 21.6018 101.983C21.9658 101.385 22.4235 100.974 22.975 100.75C23.5278 100.521 24.1167 100.49 24.7415 100.657C25.2443 100.791 25.6843 101.024 26.0613 101.355C26.4348 101.68 26.6969 102.03 26.8477 102.405C26.9985 102.78 27.0717 103.22 27.0671 103.726C27.059 104.226 26.9636 104.818 26.7809 105.502L25.6868 109.595ZM19.8424 106.51L20.4629 104.189C20.6312 103.559 20.7104 103.097 20.7005 102.801C20.6897 102.411 20.5839 102.093 20.3833 101.846C20.1839 101.594 19.8962 101.417 19.5204 101.317C19.164 101.222 18.8287 101.223 18.5146 101.323C18.1955 101.42 17.9448 101.615 17.7623 101.906C17.575 102.196 17.3782 102.727 17.1721 103.498L16.5986 105.643L19.8424 106.51ZM24.7997 107.836L25.5141 105.163C25.6368 104.704 25.7059 104.377 25.7213 104.183C25.7501 103.84 25.7256 103.54 25.6476 103.284C25.5696 103.028 25.4202 102.795 25.1993 102.584C24.9736 102.372 24.6898 102.22 24.3481 102.129C23.9478 102.022 23.5738 102.032 23.2261 102.158C22.8735 102.284 22.5897 102.514 22.3747 102.849C22.1561 103.177 21.9554 103.683 21.7727 104.367L21.1092 106.849L24.7997 107.836Z" fill="#4552C8"/>
<path d="M28.2409 100.163L19.3531 92.2457L19.9127 90.7637L31.9145 90.4344L31.3227 92.0015L27.7165 92.0252L26.0752 96.3719L28.7925 98.7024L28.2409 100.163ZM25.1048 95.5518L26.4355 92.0276L23.1469 92.0254C22.1475 92.0261 21.3361 92.0006 20.7129 91.9489C21.3294 92.333 21.9207 92.7696 22.4868 93.2588L25.1048 95.5518Z" fill="#4552C8"/>
<path d="M32.8872 88.3493L22.9465 83.3843L26.5365 76.1966L27.7095 76.7825L24.7766 82.6547L27.8212 84.1754L30.5679 78.6761L31.7342 79.2587L28.9875 84.7579L32.3711 86.4479L35.4192 80.3452L36.5923 80.9311L32.8872 88.3493Z" fill="#4552C8"/>
<path d="M38.076 78.2197L28.7586 72.1654L29.9645 70.3096L37.9947 72.3909C38.7412 72.5867 39.2973 72.7371 39.663 72.8421C39.3928 72.5159 39.0024 72.0272 38.4915 71.3759L33.4583 64.9327L34.5362 63.2738L43.8536 69.3281L43.0813 70.5166L35.2829 65.4494L41.322 73.2241L40.5993 74.3364L30.9164 71.8772L38.8483 77.0312L38.076 78.2197Z" fill="#4552C8"/>
<path d="M52.2758 53.3816L53.5412 52.5455C54.2257 53.5872 54.5323 54.6193 54.4612 55.6419C54.3898 56.6575 53.9642 57.5927 53.1843 58.4475C52.3772 59.3323 51.5408 59.8893 50.675 60.1186C49.8089 60.3408 48.9014 60.2859 47.9527 59.9538C47.0073 59.6181 46.1426 59.0926 45.3587 58.3775C44.5038 57.5976 43.9072 56.7559 43.5688 55.8522C43.2301 54.9413 43.1707 54.0355 43.3904 53.1348C43.6099 52.227 44.0499 51.4109 44.7106 50.6867C45.4598 49.8654 46.2988 49.3655 47.2278 49.187C48.1567 49.0084 49.1005 49.1547 50.0593 49.6257L49.3356 50.9251C48.5646 50.5706 47.8777 50.4501 47.2749 50.5637C46.672 50.6772 46.1203 51.0083 45.6197 51.5571C45.0442 52.188 44.7135 52.8541 44.6277 53.5555C44.5452 54.2532 44.6814 54.9212 45.0362 55.5595C45.3872 56.1943 45.8334 56.7587 46.3747 57.2525C47.0728 57.8893 47.7751 58.3453 48.4816 58.6205C49.1878 58.8885 49.8655 58.9253 50.5148 58.731C51.164 58.5367 51.7167 58.1894 52.1731 57.6892C52.7282 57.0807 53.0227 56.4054 53.0566 55.6635C53.0905 54.9215 52.8302 54.1609 52.2758 53.3816Z" fill="#4552C8"/>
<path d="M55.8999 55.2103L51.6196 44.1037L52.7953 43.042L63.6177 48.2405L62.3746 49.3632L59.1571 47.7343L55.7089 50.8484L57.0587 54.1639L55.8999 55.2103ZM55.2212 49.6751L58.017 47.1503L55.0938 45.6437C54.2048 45.187 53.495 44.7931 52.9645 44.462C53.337 45.0856 53.663 45.7444 53.9425 46.4384L55.2212 49.6751Z" fill="#4552C8"/>
<path d="M58.8631 37.8729L59.9392 37.0845L65.1402 44.1828L64.7081 33.5902L65.9003 32.7167L72.4677 41.6798L71.3917 42.4682L66.204 35.3882L66.6166 45.967L65.4305 46.8361L58.8631 37.8729ZM61.7567 32.4734L62.5088 31.9224C62.8209 32.4767 62.9202 33.0053 62.8064 33.5084C62.6967 34.0084 62.3831 34.4481 61.8654 34.8274C61.3437 35.2097 60.8273 35.3813 60.3164 35.3423C59.8065 35.2962 59.3328 35.0387 58.8954 34.5699L59.6474 34.0189C59.9076 34.2543 60.172 34.38 60.4406 34.3961C60.7104 34.4052 60.9879 34.3052 61.2732 34.0962C61.6034 33.8543 61.8042 33.6069 61.8758 33.354C61.9484 33.094 61.9087 32.8005 61.7567 32.4734Z" fill="#4552C8"/>
<path d="M77.1803 38.8026L72.1526 30.3902L69.0101 32.2683L68.3374 31.1427L75.8976 26.6244L76.5703 27.7499L73.4148 29.6358L78.4425 38.0482L77.1803 38.8026Z" fill="#4552C8"/>
<path d="M78.4022 25.2686L79.7376 24.6531L81.7237 28.9623L84.1329 27.8518C85.7116 27.1242 86.883 26.9376 87.6472 27.292C88.4161 27.6443 88.9707 28.1898 89.3113 28.9287C89.6709 29.7088 89.7198 30.5153 89.4582 31.348C89.1945 32.1762 88.3399 32.9234 86.8943 33.5896L83.0533 35.36L78.4022 25.2686ZM83.8652 33.6087L86.3089 32.4824C87.1487 32.0953 87.6922 31.6751 87.9395 31.2217C88.1893 30.7617 88.1714 30.2219 87.8858 29.6023C87.6912 29.1802 87.4137 28.8797 87.0531 28.7009C86.6925 28.5221 86.3129 28.4773 85.9144 28.5664C85.5159 28.6555 84.8922 28.8956 84.0432 29.2869L82.2535 30.1118L83.8652 33.6087ZM87.22 21.2045L88.5555 20.589L93.2066 30.6803L91.8712 31.2958L87.22 21.2045Z" fill="#4552C8"/>
<path d="M99.232 16.8903L100.521 16.5463L102.79 25.0485L106.233 15.0217L107.661 14.6405L110.527 25.3763L109.238 25.7204L106.974 17.2401L103.518 27.2469L102.098 27.6261L99.232 16.8903Z" fill="#4552C8"/>
<path d="M119.29 23.7609L118.268 12.6964L120.472 12.4928L123.815 20.0852C124.124 20.7924 124.35 21.3221 124.494 21.6742C124.583 21.26 124.724 20.6507 124.919 19.8461L126.857 11.9031L128.827 11.7211L129.849 22.7857L128.438 22.916L127.582 13.6553L125.222 23.213L123.902 23.335L119.832 14.2113L120.702 23.6305L119.29 23.7609Z" fill="#4552C8"/>
<path d="M132.826 17.3179C132.865 15.4739 133.39 14.0419 134.402 13.0219C135.414 11.9969 136.703 11.5007 138.269 11.5335C139.295 11.5549 140.214 11.8193 141.027 12.3265C141.841 12.8338 142.453 13.5314 142.864 14.4194C143.28 15.3025 143.477 16.2997 143.453 17.4112C143.43 18.5377 143.181 19.5409 142.708 20.4205C142.235 21.3001 141.577 21.9611 140.733 22.4034C139.89 22.8406 138.986 23.0492 138.021 23.029C136.976 23.0071 136.046 22.735 135.233 22.2126C134.421 21.6902 133.811 20.9876 133.405 20.1047C132.999 19.2218 132.806 18.2929 132.826 17.3179ZM134.341 17.3723C134.313 18.7111 134.65 19.7744 135.351 20.5624C136.058 21.3454 136.954 21.7482 138.04 21.7709C139.146 21.794 140.064 21.4241 140.793 20.6609C141.526 19.8979 141.908 18.8016 141.938 17.3719C141.957 16.4676 141.819 15.6763 141.525 14.9979C141.236 14.3146 140.8 13.7824 140.217 13.4013C139.638 13.0152 138.983 12.8145 138.25 12.7992C137.21 12.7774 136.306 13.1173 135.538 13.819C134.775 14.5157 134.376 15.7001 134.341 17.3723Z" fill="#4552C8"/>
<path d="M146.039 12.1261L153.191 13.0165L153.03 14.3177L147.336 13.609L146.913 17.0087L149.545 17.3364C150.518 17.4575 151.278 17.6464 151.827 17.9031C152.381 18.1604 152.798 18.5688 153.08 19.1284C153.362 19.6829 153.461 20.3011 153.376 20.9831C153.307 21.5397 153.117 22.0456 152.805 22.5007C152.5 22.9515 152.082 23.2993 151.553 23.544C151.023 23.7887 150.167 23.8374 148.983 23.6901L144.666 23.1526L146.039 12.1261ZM146.28 22.0932L149.198 22.4565C149.985 22.5545 150.594 22.4674 151.025 22.1952C151.461 21.9236 151.719 21.4668 151.799 20.825C151.856 20.3687 151.791 19.9736 151.603 19.6396C151.416 19.3056 151.128 19.0635 150.739 18.9133C150.35 18.7631 149.672 18.6278 148.704 18.5073L146.756 18.2648L146.28 22.0932Z" fill="#4552C8"/>
<path d="M158.624 13.9318L159.924 14.2317L157.945 22.8062L165.684 15.561L167.125 15.8933L164.626 26.7204L163.326 26.4205L165.3 17.8681L157.558 25.0895L156.125 24.7589L158.624 13.9318Z" fill="#4552C8"/>
<path d="M171.601 17.2403L178.18 19.5034L174.566 30.0109L173.176 29.5326L176.363 20.2651L172.565 18.9585L170.703 24.37C170.325 25.469 169.996 26.256 169.715 26.7311C169.439 27.2079 169.086 27.5329 168.658 27.7062C168.231 27.8748 167.765 27.8719 167.258 27.6977C166.953 27.5925 166.604 27.4086 166.214 27.146L166.874 25.9946C167.071 26.169 167.25 26.2842 167.413 26.3401C167.728 26.4486 168.005 26.4128 168.243 26.2329C168.483 26.0483 168.754 25.5163 169.056 24.6371L171.601 17.2403Z" fill="#4552C8"/>
<path d="M183.169 21.4964L184.504 22.1129L182.515 26.4205L184.923 27.5328C186.047 28.0519 186.801 28.5587 187.185 29.0532C187.569 29.5478 187.767 30.0707 187.779 30.622C187.792 31.1732 187.688 31.6874 187.468 32.1645C187.108 32.9443 186.526 33.505 185.723 33.8464C184.919 34.1878 183.793 34.0238 182.343 33.3543L178.51 31.5841L183.169 21.4964ZM180.37 31.0652L182.812 32.1934C183.803 32.6511 184.528 32.7745 184.988 32.5635C185.453 32.3501 185.801 31.9957 186.03 31.5003C186.216 31.0966 186.264 30.704 186.173 30.3224C186.089 29.9384 185.884 29.6215 185.56 29.3715C185.236 29.1216 184.64 28.7964 183.773 28.3959L181.984 27.5696L180.37 31.0652Z" fill="#4552C8"/>
<path d="M188.199 36.23L193.825 26.6482L195.093 27.3928L192.783 31.3275L197.763 34.2521L200.074 30.3174L201.342 31.062L195.715 40.6437L194.447 39.8992L197.099 35.3828L192.119 32.4582L189.467 36.9746L188.199 36.23Z" fill="#4552C8"/>
<path d="M204.585 33.1806L205.76 34.0653L202.905 37.8554L205.024 39.4513C206.413 40.4971 207.132 41.4404 207.182 42.2814C207.236 43.1253 207.018 43.8722 206.529 44.5221C206.012 45.2083 205.325 45.6333 204.467 45.7974C203.613 45.9573 202.55 45.5585 201.279 44.6009L197.9 42.0565L204.585 33.1806ZM199.827 41.9421L201.977 43.5609C202.715 44.1172 203.343 44.3969 203.859 44.4C204.383 44.402 204.85 44.1306 205.26 43.5857C205.54 43.2144 205.673 42.8276 205.66 42.4253C205.646 42.0231 205.506 41.6676 205.239 41.3588C204.972 41.05 204.465 40.6145 203.718 40.0521L202.144 38.8665L199.827 41.9421ZM212.341 39.0219L213.516 39.9066L206.831 48.7824L205.656 47.8978L212.341 39.0219Z" fill="#4552C8"/>
<path d="M209.18 50.903L216.842 42.8553L222.661 48.3952L221.756 49.3449L217.002 44.8189L214.656 47.2837L219.108 51.5223L218.209 52.4665L213.757 48.2279L211.149 50.9672L216.09 55.6709L215.185 56.6206L209.18 50.903Z" fill="#4552C8"/>
<path d="M230.252 56.8645L235.566 63.8025L226.745 70.559L225.846 69.3856L233.626 63.4265L230.105 58.8292L222.325 64.7884L221.431 63.621L230.252 56.8645Z" fill="#4552C8"/>
<path d="M228.043 72.516L237.499 66.6798L239.7 70.2466C240.088 70.8744 240.354 71.3724 240.498 71.7407C240.707 72.2528 240.799 72.7336 240.773 73.1828C240.752 73.6294 240.604 74.068 240.33 74.4988C240.058 74.9338 239.687 75.2959 239.219 75.5852C238.415 76.0815 237.575 76.2463 236.7 76.0797C235.83 75.9104 234.982 75.1571 234.157 73.8198L232.66 71.3946L228.816 73.7673L228.043 72.516ZM233.775 70.7059L235.284 73.1504C235.783 73.9588 236.288 74.4399 236.799 74.5938C237.309 74.7478 237.838 74.6562 238.384 74.3191C238.779 74.075 239.055 73.7656 239.209 73.391C239.371 73.018 239.396 72.6403 239.285 72.2577C239.211 72.0125 238.998 71.6061 238.648 71.0385L237.155 68.6198L233.775 70.7059Z" fill="#4552C8"/>
<path d="M243.92 77.5221L244.501 78.7228L236.581 82.5569L247.077 84.0442L247.721 85.3745L237.72 90.2159L237.138 89.0152L245.039 85.1909L234.559 83.687L233.918 82.3635L243.92 77.5221Z" fill="#4552C8"/>
<path d="M249.478 89.7062L251.84 96.251L241.388 100.023L240.889 98.6398L250.107 95.313L248.744 91.5344L243.361 93.4769C242.268 93.8714 241.448 94.1082 240.902 94.1871C240.357 94.2709 239.883 94.2002 239.479 93.9751C239.081 93.7484 238.79 93.3831 238.609 92.8793C238.499 92.5751 238.424 92.1885 238.383 91.7196L239.695 91.5123C239.682 91.7748 239.705 91.9868 239.763 92.1484C239.876 92.4621 240.078 92.6553 240.367 92.7281C240.661 92.7992 241.246 92.677 242.12 92.3614L249.478 89.7062Z" fill="#4552C8"/>
<path d="M247.781 102.299C249.572 101.858 251.091 101.993 252.339 102.705C253.592 103.416 254.406 104.532 254.781 106.053C255.027 107.049 255.01 108.006 254.732 108.923C254.453 109.84 253.938 110.612 253.188 111.24C252.443 111.871 251.531 112.32 250.452 112.586C249.358 112.856 248.324 112.876 247.352 112.648C246.38 112.419 245.57 111.955 244.924 111.256C244.283 110.555 243.847 109.737 243.616 108.8C243.365 107.784 243.387 106.816 243.68 105.895C243.973 104.974 244.493 104.203 245.241 103.582C245.988 102.96 246.835 102.533 247.781 102.299ZM248.122 103.777C246.822 104.097 245.883 104.699 245.304 105.58C244.732 106.466 244.575 107.436 244.835 108.491C245.1 109.565 245.696 110.355 246.622 110.861C247.55 111.371 248.707 111.455 250.096 111.112C250.974 110.896 251.702 110.557 252.281 110.097C252.866 109.64 253.267 109.081 253.483 108.419C253.706 107.76 253.729 107.075 253.554 106.364C253.305 105.353 252.742 104.568 251.865 104.009C250.994 103.454 249.746 103.376 248.122 103.777Z" fill="#4552C8"/>
<path d="M257.144 120.403L252.319 121.035C252.413 121.752 252.608 122.226 252.903 122.457C253.204 122.693 253.868 122.955 254.894 123.243C255.656 123.454 256.197 123.638 256.518 123.795C256.845 123.956 257.133 124.206 257.381 124.545C257.635 124.884 257.79 125.272 257.847 125.707C257.909 126.183 257.943 126.48 257.948 126.596L256.686 126.762C256.68 126.717 256.67 126.621 256.656 126.475C256.64 126.314 256.629 126.216 256.625 126.181C256.564 125.715 256.406 125.384 256.151 125.188C255.895 124.987 255.38 124.787 254.604 124.588C253.766 124.372 253.186 124.166 252.864 123.968C252.548 123.77 252.265 123.461 252.016 123.04C251.91 123.787 251.346 124.572 250.322 125.395L246.952 128.145L246.716 126.341L249.465 124.108C250.193 123.513 250.697 123.027 250.979 122.648C251.26 122.27 251.361 121.778 251.282 121.171L246.126 121.847L245.93 120.352L251.086 119.676C251.023 119.195 250.839 118.786 250.535 118.448C250.236 118.116 249.637 117.759 248.736 117.377L248.573 117.307L245.341 115.858L245.103 114.047L249.068 115.835C250.276 116.38 251.025 116.996 251.313 117.681C251.422 117.265 251.592 116.913 251.825 116.628C252.063 116.342 252.592 115.969 253.414 115.51C254.159 115.091 254.617 114.756 254.788 114.504C254.959 114.253 255.015 113.904 254.956 113.458L254.864 112.874L256.127 112.708C256.144 112.762 256.186 113.042 256.252 113.548C256.316 114.029 256.27 114.458 256.115 114.835C255.967 115.216 255.755 115.527 255.481 115.767C255.212 116.006 254.732 116.331 254.042 116.743C253.11 117.293 252.536 117.715 252.319 118.008C252.104 118.306 252.038 118.817 252.123 119.54L256.948 118.907L257.144 120.403Z" fill="#4552C8"/>
<path d="M246.768 128.643L257.878 128.433L258.03 136.466L256.719 136.491L256.595 129.928L253.192 129.992L253.309 136.138L252.005 136.163L251.889 130.017L248.107 130.089L248.236 136.909L246.925 136.934L246.768 128.643Z" fill="#4552C8"/>
<path d="M246.807 140.102L257.881 141.017L257.76 142.482L253.213 142.107L252.737 147.863L257.284 148.238L257.163 149.704L246.089 148.789L246.211 147.323L251.43 147.755L251.906 141.999L246.686 141.567L246.807 140.102Z" fill="#4552C8"/>
<path d="M256.639 153.329L256.395 154.64L247.744 153.031L255.314 160.453L255.044 161.906L244.12 159.874L244.364 158.563L252.993 160.167L245.446 152.743L245.715 151.297L256.639 153.329Z" fill="#4552C8"/>
<path d="M240.986 170.93L251.651 174.048L253.034 169.32C253.312 168.369 253.426 167.618 253.377 167.067C253.332 166.517 253.111 166.023 252.712 165.585C252.314 165.148 251.821 164.843 251.234 164.671C250.478 164.45 249.768 164.509 249.106 164.847C248.444 165.185 247.893 165.845 247.453 166.827C247.383 166.401 247.289 166.066 247.171 165.821C246.913 165.298 246.555 164.769 246.095 164.235L243.735 161.531L243.216 163.306L245.022 165.366C245.541 165.965 245.932 166.448 246.194 166.814C246.455 167.18 246.623 167.487 246.698 167.736C246.771 167.989 246.803 168.232 246.792 168.466C246.78 168.636 246.72 168.903 246.614 169.267L246.135 170.903L241.399 169.519L240.986 170.93ZM247.357 171.261L248.244 168.227C248.433 167.582 248.646 167.097 248.883 166.771C249.125 166.447 249.419 166.233 249.766 166.129C250.117 166.027 250.465 166.026 250.809 166.126C251.313 166.274 251.675 166.577 251.893 167.036C252.111 167.499 252.104 168.126 251.873 168.917L250.885 172.292L247.357 171.261Z" fill="#4552C8"/>
<path d="M139.788 259.039L139.134 247.947L142.955 247.722C143.818 247.671 144.479 247.685 144.939 247.764C145.583 247.873 146.141 248.106 146.613 248.463C147.227 248.923 147.701 249.53 148.034 250.285C148.371 251.035 148.57 251.904 148.628 252.892C148.677 253.735 148.623 254.487 148.465 255.149C148.306 255.812 148.086 256.366 147.803 256.813C147.521 257.255 147.202 257.61 146.849 257.879C146.5 258.143 146.069 258.353 145.557 258.51C145.05 258.666 144.461 258.764 143.79 258.804L139.788 259.039ZM141.178 257.644L143.547 257.504C144.278 257.461 144.847 257.359 145.252 257.199C145.663 257.038 145.985 256.827 146.217 256.565C146.545 256.196 146.787 255.714 146.944 255.117C147.106 254.516 147.162 253.796 147.113 252.959C147.045 251.799 146.801 250.92 146.381 250.322C145.966 249.719 145.479 249.327 144.922 249.147C144.52 249.019 143.882 248.981 143.009 249.032L140.679 249.17L141.178 257.644Z" fill="#4552C8"/>
<path d="M153.297 258.034L151.426 247.082L159.346 245.728L159.566 247.021L153.096 248.126L153.669 251.481L159.729 250.446L159.948 251.731L153.889 252.766L154.526 256.494L161.25 255.345L161.471 256.638L153.297 258.034Z" fill="#4552C8"/>
<path d="M168.667 254.892L161.502 245.371L163.034 244.938L168.008 251.92C168.408 252.479 168.76 253.01 169.065 253.512C169.065 252.882 169.092 252.244 169.146 251.598L169.839 243.014L171.283 242.606L170.119 254.482L168.667 254.892Z" fill="#4552C8"/>
<path d="M177.839 252.014L173.996 241.588L175.376 241.079L179.219 251.505L177.839 252.014Z" fill="#4552C8"/>
<path d="M181.945 250.607L181.182 238.729L182.621 238.067L191.394 246.264L189.872 246.964L187.289 244.447L183.067 246.388L183.364 249.955L181.945 250.607ZM182.953 245.122L186.375 243.549L184.037 241.237C183.325 240.536 182.765 239.947 182.358 239.473C182.527 240.179 182.641 240.905 182.7 241.651L182.953 245.122Z" fill="#4552C8"/>
<path d="M194.385 244.724L188.661 235.2L189.954 234.423L199.45 238.894L194.956 231.416L196.165 230.69L201.889 240.214L200.596 240.991L191.096 236.514L195.594 243.998L194.385 244.724Z" fill="#4552C8"/>
<path d="M208.12 235.859L202.209 228.042L199.289 230.25L198.498 229.204L205.523 223.892L206.314 224.938L203.381 227.155L209.293 234.972L208.12 235.859Z" fill="#4552C8"/>
<path d="M215.571 222.332L214.959 220.57C216.297 220.143 217.308 219.885 217.992 219.796C216.957 218.689 216.265 217.912 215.917 217.466L217.361 216.373C217.839 217.046 218.385 217.927 219.001 219.017C219.424 218.155 219.967 217.243 220.629 216.283L222.157 217.351C221.525 218.268 220.838 219.079 220.098 219.785C220.77 219.831 221.816 220.027 223.236 220.372L222.681 222.124C221.899 221.89 220.904 221.52 219.696 221.014C219.913 222.322 220.021 223.362 220.02 224.135L218.204 224.177C218.256 222.645 218.333 221.6 218.434 221.044C217.452 221.525 216.497 221.955 215.571 222.332Z" fill="#4552C8"/>
<path d="M129.182 252.703L128.518 250.961C127.219 251.493 126.279 251.946 125.697 252.317C125.779 250.804 125.81 249.764 125.789 249.198L123.98 249.29C124.047 250.112 124.195 251.138 124.424 252.369C123.546 251.98 122.544 251.631 121.419 251.321L120.935 253.121C122.009 253.417 123.056 253.598 124.077 253.663C123.592 254.129 122.917 254.951 122.051 256.129L123.602 257.114C124.051 256.432 124.575 255.509 125.175 254.345C125.85 255.486 126.436 256.353 126.933 256.945L128.351 255.81C127.326 254.669 126.596 253.918 126.161 253.557C127.223 253.294 128.23 253.01 129.182 252.703Z" fill="#4552C8"/>
<path d="M226.694 212.228L225.676 210.667C226.871 209.93 227.789 209.435 228.432 209.183C227.16 208.359 226.301 207.772 225.855 207.423L226.993 206.014C227.619 206.551 228.362 207.275 229.223 208.184C229.425 207.245 229.731 206.229 230.142 205.137L231.883 205.805C231.491 206.848 231.021 207.801 230.473 208.664C231.135 208.546 232.198 208.484 233.66 208.477L233.544 210.31C232.728 210.272 231.673 210.153 230.379 209.953C230.905 211.171 231.261 212.154 231.448 212.904L229.695 213.384C229.376 211.884 229.198 210.852 229.162 210.287C228.325 210.992 227.502 211.639 226.694 212.228Z" fill="#4552C8"/>
<path d="M114.167 252.114L113.943 250.262C112.554 250.466 111.533 250.678 110.879 250.898C111.323 249.449 111.604 248.447 111.721 247.893L109.943 247.545C109.809 248.359 109.705 249.391 109.63 250.641C108.872 250.051 107.984 249.47 106.967 248.898L106.063 250.528C107.034 251.075 108.007 251.503 108.981 251.812C108.398 252.148 107.544 252.783 106.419 253.717L107.687 255.047C108.287 254.494 109.019 253.725 109.882 252.739C110.261 254.01 110.621 254.993 110.96 255.687L112.611 254.928C111.891 253.574 111.364 252.668 111.029 252.213C112.123 252.214 113.169 252.181 114.167 252.114Z" fill="#4552C8"/>
<path d="M234.988 199.999L233.862 198.513C235.002 197.693 235.884 197.135 236.507 196.839C235.18 196.106 234.282 195.582 233.813 195.264L234.849 193.779C235.511 194.271 236.303 194.94 237.225 195.787C237.361 194.835 237.595 193.801 237.928 192.682L239.712 193.226C239.394 194.293 238.992 195.277 238.506 196.177C239.159 196.013 240.214 195.876 241.672 195.766L241.686 197.603C240.87 197.622 239.809 197.578 238.504 197.47C239.114 198.647 239.539 199.603 239.777 200.338L238.063 200.94C237.639 199.466 237.389 198.449 237.313 197.889C236.528 198.651 235.753 199.354 234.988 199.999Z" fill="#4552C8"/>
<path d="M99.952 248.076L99.8595 246.214C98.4596 246.319 97.4256 246.458 96.7577 246.632C97.3034 245.218 97.654 244.238 97.8096 243.694L96.0608 243.222C95.8701 244.024 95.6934 245.046 95.5308 246.288C94.8155 245.646 93.9709 245.004 92.9971 244.362L91.98 245.924C92.91 246.538 93.8502 247.033 94.8008 247.41C94.1953 247.704 93.2987 248.277 92.111 249.13L93.2816 250.546C93.9194 250.036 94.7035 249.321 95.6338 248.399C95.9228 249.693 96.2121 250.699 96.5017 251.415L98.2016 250.774C97.5793 249.373 97.1171 248.433 96.8149 247.954C97.9063 248.033 98.952 248.074 99.952 248.076Z" fill="#4552C8"/>
</svg>
