<svg width="1600" height="800" viewBox="0 0 1600 800" fill="none" xmlns="http://www.w3.org/2000/svg">
<rect width="1600" height="800" fill="#232121"/>
<g filter="url(#filter0_d_802_182)">
<path d="M829.286 379.871C829.286 379.259 829.524 378.754 830.001 378.357C830.509 377.928 831.129 377.714 831.859 377.714C832.241 377.714 832.622 377.806 833.003 377.989C834.052 379.581 835.768 381.554 838.151 383.911C840.565 386.236 842.043 387.751 842.583 388.455C842.583 387.69 842.853 387.017 843.393 386.435C843.965 385.823 844.632 385.517 845.395 385.517C845.808 385.395 846.332 385.426 846.968 385.609C847.635 385.793 848.096 385.823 848.35 385.701C848.668 384.722 849.367 384.003 850.447 383.543C851.527 383.054 852.639 382.809 853.783 382.809C854.578 383.237 855.134 383.452 855.451 383.452C855.769 383.452 855.96 383.207 856.023 382.717C856.309 381.891 856.913 381.371 857.834 381.157C858.788 380.942 859.915 380.835 861.218 380.835C862.648 381.631 863.855 382.824 864.84 384.416C865.825 385.976 866.636 387.262 867.271 388.271C867.144 388.761 867.319 389.511 867.795 390.521C868.304 391.531 868.558 392.127 868.558 392.311C870.814 389.557 872.816 387.262 874.563 385.426C876.342 383.559 878.376 382.625 880.664 382.625C881.363 382.625 882.078 382.763 882.808 383.039C883.571 383.314 884.016 384.079 884.143 385.334C884.079 385.701 883.714 386.038 883.047 386.344C882.411 386.619 881.712 386.91 880.95 387.216C880.219 387.981 879.44 389.327 878.614 391.255C877.82 393.152 877.169 394.377 876.66 394.927C875.612 396.733 874.754 398.829 874.086 401.216C872.72 402.991 871.306 404.812 869.845 406.678C868.383 408.545 866.874 410.075 865.317 411.269C865.126 411.605 864.999 411.942 864.936 412.279C864.872 412.615 864.84 412.998 864.84 413.426C864.84 413.763 864.872 414.252 864.936 414.895C864.999 415.507 865.031 415.997 865.031 416.364C865.031 416.731 864.999 417.037 864.936 417.282C864.141 418.108 863.538 418.72 863.125 419.118C862.712 419.485 861.488 420.388 859.455 421.826C859.137 421.949 858.645 422.056 857.977 422.148C857.342 422.239 856.659 422.285 855.928 422.285C854.435 422.285 852.973 422.102 851.543 421.734C850.113 421.337 848.62 420.771 847.063 420.036C846.809 419.332 846.586 418.445 846.396 417.374C846.205 416.272 846.046 415.186 845.919 414.115C844.203 412.217 842.821 409.739 841.773 406.678C840.502 402.119 839.215 397.544 837.912 392.954C835.37 390.261 833.289 387.996 831.669 386.16C830.08 384.293 829.286 382.197 829.286 379.871ZM830.191 379.137C830.064 379.749 830.001 380.223 830.001 380.56C830.001 381.539 830.255 382.457 830.763 383.314C831.272 384.171 832.018 385.028 833.003 385.885C833.48 385.946 833.956 385.793 834.433 385.426C834.91 385.058 835.386 384.691 835.863 384.324C835.704 384.752 835.482 385.074 835.196 385.288C834.91 385.502 834.417 385.839 833.718 386.298C833.972 387.399 834.608 388.271 835.625 388.914C835.783 388.486 836.228 387.874 836.959 387.078C837.722 386.282 838.103 385.64 838.103 385.15C837.753 384.783 837.436 384.462 837.15 384.186C836.864 383.88 836.594 383.727 836.339 383.727C836.149 383.727 835.958 383.895 835.768 384.232L836.149 383.084C835.958 382.901 835.402 382.075 834.481 380.606C833.559 379.137 832.717 378.402 831.955 378.402C831.351 378.402 830.763 378.647 830.191 379.137ZM860.265 381.386C859.216 381.57 858.311 381.784 857.548 382.029C856.818 382.243 856.42 382.748 856.357 383.543L856.738 392.127C857.246 392.311 857.946 392.326 858.835 392.173C859.725 391.99 860.233 391.898 860.36 391.898C859.439 392.602 858.295 392.954 856.929 392.954C856.992 393.321 857.167 393.872 857.453 394.606C857.739 395.31 857.914 395.769 857.977 395.983L859.455 395.478C860.122 395.295 860.678 395.509 861.123 396.121C861.568 396.702 861.933 397.177 862.219 397.544C862.727 395.983 863.013 393.657 863.077 390.567C863.14 387.445 863.236 385.364 863.363 384.324C863.744 384.569 863.967 385.043 864.03 385.747C864.094 386.42 864.173 387.063 864.268 387.675L865.126 386.298C864.682 385.288 864.046 384.385 863.22 383.589C862.394 382.763 861.409 382.029 860.265 381.386ZM853.593 383.36C852.417 383.543 851.495 383.773 850.828 384.048C850.193 384.293 849.621 384.783 849.112 385.517C849.621 389.404 850.145 392.296 850.685 394.193C851.257 396.06 852.433 397.773 854.212 399.334C854.212 399.089 854.371 398.875 854.689 398.691C855.006 398.508 855.229 398.385 855.356 398.324C855.96 398.079 856.452 398.033 856.833 398.186C857.215 398.339 857.771 398.63 858.502 399.059L856.738 395.478C856.134 395.876 855.594 396.167 855.118 396.35C854.641 396.534 854.069 396.626 853.402 396.626C853.275 396.687 853.148 396.641 853.021 396.488C852.893 396.335 852.83 396.228 852.83 396.167C853.084 396.044 853.672 395.891 854.593 395.708C855.547 395.493 856.198 395.233 856.547 394.927C856.134 394.04 855.848 393.122 855.69 392.173C855.531 391.194 855.451 390.046 855.451 388.73C855.451 388.027 855.451 387.338 855.451 386.665C855.451 385.961 855.483 385.272 855.547 384.599C855.229 383.773 854.578 383.36 853.593 383.36ZM882.618 383.543C882.268 383.482 881.776 383.452 881.14 383.452C879.393 383.452 877.836 383.941 876.47 384.921C875.103 385.9 873.864 387.17 872.752 388.73C872.688 389.098 872.99 389.618 873.658 390.291C874.357 390.934 874.563 391.439 874.277 391.806C873.769 391.806 873.276 391.5 872.8 390.888C872.355 390.245 872.037 389.863 871.846 389.74C871.465 390.077 871.052 390.475 870.607 390.934C870.194 391.393 869.511 392.341 868.558 393.78C868.876 394.728 869.225 395.677 869.606 396.626C869.988 397.574 870.544 398.324 871.275 398.875C870.48 398.569 869.845 398.033 869.368 397.268C868.892 396.473 868.383 395.448 867.843 394.193C867.335 394.499 867.08 394.958 867.08 395.57C867.08 396.213 867.08 396.84 867.08 397.452C867.017 397.085 866.858 396.871 866.604 396.809C866.604 397.238 866.667 397.697 866.794 398.186C866.922 398.645 867.08 399.196 867.271 399.839C866.477 398.584 866.08 397.192 866.08 395.662L863.363 397.085C863.299 397.513 863.093 397.926 862.743 398.324C862.394 398.691 862.076 398.997 861.79 399.242C860.9 399.059 859.995 399.38 859.073 400.206C858.152 401.002 857.374 401.43 856.738 401.491C855.88 401.828 855.245 402.409 854.832 403.236C854.419 404.031 854.037 405.057 853.688 406.311C854.228 407.443 854.641 408.3 854.927 408.882C855.213 409.433 855.69 410.106 856.357 410.901C857.437 411.085 858.565 411.177 859.741 411.177C861.234 411.177 862.569 411.085 863.744 410.901C865.11 410.412 866.556 409.28 868.081 407.505C869.638 405.699 871.322 403.695 873.133 401.491C873.769 399.441 874.277 397.911 874.658 396.901C875.071 395.891 875.675 394.79 876.47 393.596L875.564 393.229C875.628 393.045 875.755 392.954 875.945 392.954C876.136 392.954 876.342 392.954 876.565 392.954L875.945 392.403C876.676 392.403 877.169 392.311 877.423 392.127C877.931 390.597 878.694 389.159 879.71 387.812C880.727 386.466 881.95 385.426 883.38 384.691L883.285 384.232L882.618 383.543ZM839.151 386.114C839.024 385.9 838.834 385.793 838.579 385.793C838.325 385.793 838.166 385.93 838.103 386.206C838.23 386.512 838.135 386.848 837.817 387.216C837.531 387.583 837.324 387.828 837.197 387.95L837.007 387.767C837.261 387.522 837.356 387.338 837.293 387.216C837.166 387.338 836.911 387.69 836.53 388.271L837.197 388.18C836.498 388.608 836.149 389.037 836.149 389.465C836.149 389.863 836.403 390.291 836.911 390.75C837.42 391.209 838.039 391.729 838.77 392.311C838.961 392.188 839.39 391.714 840.057 390.888C840.756 390.062 841.328 389.557 841.773 389.373L839.151 386.114ZM844.251 386.665C843.774 386.91 843.457 387.277 843.298 387.767C843.139 388.226 843.06 388.792 843.06 389.465C843.917 392.556 844.744 395.08 845.538 397.039C846.364 398.967 847.953 400.206 850.304 400.757C850.24 400.206 850.367 399.747 850.685 399.38C851.003 398.982 851.464 398.63 852.067 398.324C851.718 397.498 851.384 397.085 851.067 397.085C851.067 397.33 850.908 397.544 850.59 397.727C850.272 397.88 850.113 398.018 850.113 398.141C849.573 398.324 849.049 398.416 848.541 398.416C847.937 398.416 847.476 398.294 847.158 398.049C847.762 398.049 848.27 397.988 848.683 397.865C849.097 397.712 849.891 397.33 851.067 396.718C850.622 395.646 850.177 394.377 849.732 392.908C849.319 391.439 848.858 389.358 848.35 386.665C847.619 386.298 846.904 386.114 846.205 386.114C845.474 386.114 844.823 386.298 844.251 386.665ZM865.222 387.216L865.126 387.767C865.19 387.644 865.222 387.522 865.222 387.399V387.216ZM865.794 387.95C865.285 388.532 864.777 389.144 864.268 389.786C863.792 390.398 863.681 391.041 863.935 391.714C864.411 391.653 864.904 391.378 865.412 390.888C865.921 390.398 866.286 390.123 866.508 390.062C866.636 390.674 866.159 391.301 865.079 391.944C863.998 392.556 863.617 393.244 863.935 394.009C864.729 394.132 865.285 394.193 865.603 394.193C866.461 394.193 867.08 393.933 867.462 393.413C867.525 392.617 867.271 391.576 866.699 390.291C866.159 389.006 865.857 388.226 865.794 387.95ZM842.583 390.245C842.043 390.49 841.471 390.827 840.867 391.255C840.263 391.684 839.692 392.097 839.151 392.495C838.961 393.168 838.945 393.78 839.104 394.331C839.263 394.851 839.58 395.616 840.057 396.626C840.502 396.687 841.169 396.565 842.059 396.259C842.98 395.922 843.711 395.861 844.251 396.075C843.52 395.004 842.837 393.933 842.202 392.862C842.774 393.566 843.25 394.04 843.631 394.285C843.631 393.764 843.409 393.168 842.964 392.495C842.519 391.791 842.265 391.347 842.202 391.163L842.774 391.347L842.583 390.245ZM864.936 394.927L864.125 394.56L863.84 394.927H864.936ZM858.311 396.993L858.978 398.508C860.344 398.63 861.186 398.339 861.504 397.636C861.504 396.901 861.186 396.534 860.551 396.534C860.201 396.534 859.82 396.595 859.407 396.718C858.994 396.84 858.629 396.932 858.311 396.993ZM842.297 396.626C841.376 396.871 840.772 397.1 840.486 397.314C840.2 397.528 840.152 397.896 840.343 398.416C841.582 402.302 842.821 406.189 844.06 410.075C844.696 411.33 845.3 412.263 845.872 412.875C846.475 413.457 847.27 413.747 848.255 413.747C848.636 413.747 848.922 413.717 849.112 413.656C849.843 413.656 850.717 413.365 851.734 412.783C852.782 412.171 853.529 411.865 853.974 411.865C853.783 412.171 853.64 412.416 853.545 412.6C853.45 412.783 853.465 412.998 853.593 413.242C854.196 412.692 854.498 412.095 854.498 411.452C854.498 410.84 854.292 410.244 853.878 409.662C853.497 409.05 853.148 408.469 852.83 407.918C852.957 406.786 853.116 405.653 853.307 404.521C853.307 404.337 853.513 403.909 853.926 403.236C854.371 402.532 854.593 402.058 854.593 401.813C854.593 401.415 854.323 401.124 853.783 400.941C853.529 401.369 853.036 401.629 852.306 401.721C851.607 401.782 851.098 401.874 850.781 401.996C847.984 401.048 845.967 399.38 844.728 396.993L842.297 396.626ZM856.643 398.875C856.579 398.997 856.166 399.166 855.404 399.38C854.673 399.594 854.53 400.023 854.975 400.665C855.61 400.849 856.134 400.849 856.547 400.665C856.992 400.482 857.517 400.206 858.12 399.839C857.834 399.502 857.596 399.227 857.405 399.013C857.215 398.798 856.961 398.753 856.643 398.875ZM852.449 399.426C852.322 399.548 851.988 399.701 851.448 399.885C850.939 400.038 850.812 400.359 851.067 400.849H851.829C852.179 400.665 852.465 400.497 852.687 400.344C852.909 400.191 852.989 399.946 852.925 399.609L852.449 399.426ZM855.737 412.049L855.547 412.416C855.674 412.967 855.785 414.298 855.88 416.41C855.976 418.521 856.389 420.067 857.119 421.046C858.104 421.107 858.994 420.924 859.788 420.495C860.614 420.067 861.314 419.409 861.885 418.521C861.695 418.215 861.568 417.848 861.504 417.42C861.441 416.961 861.409 416.486 861.409 415.997V414.39C861.409 414.145 861.409 413.87 861.409 413.564C861.282 413.288 861.218 413.12 861.218 413.059L858.692 413.564C857.644 413.411 857.056 413.089 856.929 412.6C857.119 412.477 857.358 412.493 857.644 412.646C857.961 412.799 858.184 412.845 858.311 412.783C858.946 412.783 859.502 412.768 859.979 412.738C860.487 412.707 860.9 412.569 861.218 412.324C859.534 412.324 857.707 412.233 855.737 412.049ZM854.784 412.049C854.593 412.783 854.498 413.533 854.498 414.298C854.498 415.186 854.609 416.456 854.832 418.108C855.054 419.761 855.165 420.801 855.165 421.23H856.357C855.88 420.25 855.531 418.644 855.308 416.41C855.086 414.176 854.911 412.722 854.784 412.049ZM862.41 412.233C862.473 412.355 862.267 412.63 861.79 413.059V415.124C861.79 416.563 862.028 417.542 862.505 418.062C862.696 417.358 862.791 416.7 862.791 416.088C862.727 414.895 862.696 413.946 862.696 413.242V412.324L862.41 412.233ZM852.83 413.059C851.781 413.579 850.892 413.977 850.161 414.252C849.462 414.528 848.731 414.665 847.969 414.665C848.795 414.665 849.383 414.635 849.732 414.574C850.113 414.512 851.146 414.237 852.83 413.747V413.059ZM863.554 413.242V415.216C863.554 415.981 863.617 416.517 863.744 416.823L863.554 413.242ZM853.783 413.747C853.656 414.604 853.593 415.293 853.593 415.813C853.593 417.435 853.863 418.934 854.403 420.311C854.466 420.005 854.498 419.501 854.498 418.797C854.498 418.062 854.466 417.251 854.403 416.364C854.339 415.476 854.276 414.604 854.212 413.747H853.783ZM853.116 414.206C852.258 414.512 851.257 414.818 850.113 415.124C849.001 415.4 847.984 415.568 847.063 415.629L847.969 419.577L853.783 421.046L853.116 414.206Z" fill="#CD4138"/>
</g>
<g filter="url(#filter1_d_802_182)">
<path d="M624.295 368.175C624.913 367.89 625.549 367.953 626.2 368.365C626.851 368.745 627.34 369.601 627.666 370.931C628.024 372.262 628.252 373.91 628.35 375.874C628.447 377.807 628.496 380.452 628.496 383.81C628.496 384.001 628.382 384.682 628.154 385.854C627.926 387.026 627.845 387.866 627.91 388.373C628.985 387.232 630.222 386.662 631.623 386.662C632.079 386.662 632.567 386.757 633.089 386.947C633.838 387.993 634.456 389.117 634.945 390.321C635.466 391.494 635.727 392.666 635.727 393.838C635.727 394.693 635.58 395.47 635.287 396.167C635.776 397.212 636.313 398.305 636.899 399.446C637.518 400.586 638.218 401.537 639 402.297C639 403.343 638.642 405.085 637.925 407.525C637.241 409.965 636.899 411.739 636.899 412.848C634.978 415.509 633.04 418.155 631.085 420.784C630.304 420.879 629.701 421.244 629.278 421.877C628.692 423.493 628.252 424.555 627.959 425.061C627.666 425.537 627.487 426.408 627.421 427.675C627.356 428.943 627.047 429.798 626.493 430.242C623.757 430.844 621.054 431.43 618.383 432C617.732 432 616.934 431.873 615.989 431.62C615.045 431.366 613.758 430.749 612.13 429.766C610.501 428.784 609.394 428.166 608.808 427.913C609.264 427.057 609.622 425.679 609.882 423.778C610.143 421.877 610.485 420.499 610.908 419.644C610.029 417.489 609.15 415.319 608.27 413.133C607.423 410.598 607 408.285 607 406.194C607 404.832 607.195 403.47 607.586 402.107C608.596 397.323 609.638 392.492 610.713 387.612C610.615 387.042 610.566 386.583 610.566 386.234V385.379C610.99 383.826 611.316 382.67 611.544 381.909C611.772 381.117 612.162 380.515 612.716 380.104C612.911 379.977 613.27 379.945 613.791 380.009C614.312 380.072 614.687 380.104 614.915 380.104C615.37 380.104 615.664 379.834 615.794 379.296C615.924 378.757 615.989 378.092 615.989 377.3C615.924 376.127 615.892 375.256 615.892 374.686C615.892 373.704 616.022 372.927 616.282 372.357C616.543 371.755 616.934 371.359 617.455 371.169C618.009 370.979 618.399 370.884 618.627 370.884C618.888 370.884 619.051 370.884 619.116 370.884C620.223 370.884 621.087 371.296 621.705 372.119C621.966 371.106 622.21 370.25 622.438 369.553C622.666 368.824 623.285 368.365 624.295 368.175ZM622.976 369.411C622.78 370.013 622.65 370.773 622.585 371.692C622.52 372.579 622.487 373.086 622.487 373.213C622.487 373.656 622.52 374.432 622.585 375.541C622.65 376.65 622.682 377.521 622.682 378.155C623.106 378.092 623.855 377.965 624.93 377.775C626.037 377.585 626.9 377.521 627.519 377.585V372.357C627.519 372.009 627.519 371.644 627.519 371.264C627.389 370.82 627.259 370.266 627.128 369.601C627.031 368.904 626.347 368.555 625.076 368.555C624.295 368.555 623.594 368.84 622.976 369.411ZM618.09 371.454C617.439 371.993 616.983 372.611 616.722 373.308C616.494 373.973 616.38 374.813 616.38 375.826C616.38 376.238 616.413 376.919 616.478 377.87C616.543 378.789 616.576 379.502 616.576 380.009L619.507 379.533C620.289 379.597 620.745 379.597 620.875 379.533C620.875 378.551 620.907 377.632 620.973 376.777C621.07 375.89 621.152 374.987 621.217 374.068C621.217 373.308 621.184 372.737 621.119 372.357C620.761 371.755 619.751 371.454 618.09 371.454ZM627.519 378.155C626.835 378.028 626.33 377.965 626.005 377.965C624.604 377.965 623.497 378.266 622.682 378.868C621.966 380.42 621.608 381.846 621.608 383.145C621.608 383.462 621.673 383.89 621.803 384.428C622.324 384.428 623.204 384.365 624.441 384.238C625.679 384.08 626.33 384.001 626.395 384.001C626.851 384.001 627.226 384.032 627.519 384.096C627.649 383.652 627.747 382.939 627.812 381.957C627.877 380.943 627.91 380.199 627.91 379.723L627.519 378.155ZM620.582 380.104C619.8 379.977 619.23 379.945 618.872 380.009C618.546 380.072 617.748 380.309 616.478 380.721C616.217 381.165 616.136 381.704 616.234 382.337C616.331 382.939 616.315 383.62 616.185 384.381C616.054 385.109 615.989 385.569 615.989 385.759C615.989 386.139 616.087 386.535 616.282 386.947L621.119 386.139L620.875 380.721L620.582 380.104ZM613.4 380.531C612.651 380.658 612.211 381.07 612.081 381.767L611.006 386.947C611.202 387.201 611.495 387.327 611.885 387.327C612.765 387.327 613.661 387.327 614.573 387.327C614.117 387.327 613.758 387.359 613.498 387.422C613.237 387.612 612.814 387.787 612.227 387.945C611.674 388.103 611.299 388.246 611.104 388.373C611.104 391.446 610.566 394.535 609.492 397.64C610.501 397.26 611.544 396.848 612.618 396.404C613.726 395.929 614.621 395.343 615.305 394.646L615.598 381.957C615.468 381.45 615.208 381.038 614.817 380.721C614.459 380.373 613.986 380.309 613.4 380.531ZM621.901 385.759L621.803 392.175L622.096 392.602C622.357 392.539 622.78 392.492 623.366 392.46C623.985 392.396 624.555 392.333 625.076 392.27C625.891 392.27 626.461 392.238 626.786 392.175C626.786 391.224 626.9 389.989 627.128 388.468C627.389 386.915 627.584 385.759 627.715 384.999C627.031 384.872 626.526 384.808 626.2 384.808C624.669 384.808 623.236 385.125 621.901 385.759ZM620.875 386.947C620.158 386.884 619.246 387.058 618.139 387.47C617.032 387.882 616.348 388.119 616.087 388.183C616.152 390.337 616.25 392.46 616.38 394.551L620.484 392.793L621.315 388.088L620.875 386.947ZM632.698 387.422C632.046 387.296 631.509 387.232 631.085 387.232C629.978 387.232 629.148 387.612 628.594 388.373C628.464 388.911 628.398 389.307 628.398 389.561C628.398 390.004 628.48 390.638 628.643 391.462C628.806 392.286 628.887 392.793 628.887 392.983C629.148 393.426 629.278 394.282 629.278 395.549C629.278 396.816 629.555 397.703 630.108 398.21C630.304 397.893 630.434 397.703 630.499 397.64C630.174 397.45 630.108 397.086 630.304 396.547C630.499 395.977 630.564 395.501 630.499 395.121C630.499 394.202 631.232 393.743 632.698 393.743C633.317 393.68 633.707 393.981 633.87 394.646C634.033 395.28 634.245 395.628 634.505 395.691C634.636 395.311 634.766 394.852 634.896 394.313C635.026 393.743 635.092 393.141 635.092 392.507C635.092 391.589 634.896 390.765 634.505 390.036L632.698 387.422ZM622.096 392.983L621.803 393.173C620.337 393.363 618.53 394.06 616.38 395.264C614.263 396.468 612.7 397.228 611.69 397.545C610.094 397.545 609.101 398.289 608.71 399.779C608.482 401.806 608.303 403.2 608.173 403.961C608.303 403.961 608.482 403.882 608.71 403.723C608.97 403.565 609.166 403.581 609.296 403.771C608.287 404.563 607.782 405.577 607.782 406.812C607.782 407.382 607.879 408.048 608.075 408.808C608.27 409.537 608.433 410.123 608.563 410.567C608.726 410.978 609.264 412.578 610.176 415.367C611.12 418.155 612.065 419.786 613.009 420.262C613.986 420.705 614.654 420.959 615.012 421.022C615.403 421.085 615.826 421.117 616.282 421.117C616.966 421.117 618.074 420.943 619.605 420.594C618.334 421.513 616.869 421.972 615.208 421.972C614.654 421.972 614.247 421.941 613.986 421.877L614.817 422.162C615.208 422.226 615.729 422.258 616.38 422.258C617.325 422.258 618.237 422.036 619.116 421.592C619.637 421.909 620.077 421.798 620.435 421.26C620.793 420.689 621.021 420.404 621.119 420.404L621.315 420.594C620.891 423.129 620.517 425.663 620.191 428.198C620.191 428.642 620.256 429.323 620.386 430.242L620.093 430.527C619.637 429.703 619.409 428.832 619.409 427.913C619.409 427.533 619.474 426.82 619.605 425.774C619.735 424.729 619.8 424.143 619.8 424.016C619.344 424.998 618.969 426.234 618.676 427.723C618.416 429.212 618.22 430.21 618.09 430.717C619.36 430.844 620.451 430.796 621.363 430.574C622.308 430.352 623.22 430.083 624.099 429.766C623.969 428.911 624.132 427.644 624.588 425.964C625.076 424.285 625.353 423.145 625.418 422.543H624.49C624.099 422.543 623.676 422.495 623.22 422.4C622.796 422.305 622.552 422.036 622.487 421.592C623.432 421.719 624.409 421.814 625.418 421.877C625.288 421.561 624.913 421.37 624.295 421.307C623.708 421.244 623.138 421.101 622.585 420.879C622.064 420.626 621.624 419.976 621.266 418.931C620.94 417.854 620.679 417.046 620.484 416.507C620.745 416.729 621.005 417.188 621.266 417.885C621.559 418.551 621.803 418.947 621.998 419.073C621.803 418.218 621.624 417.394 621.461 416.602C621.298 415.778 621.217 414.939 621.217 414.083C621.217 413.513 621.249 413.054 621.315 412.705L620.484 416.507L620.093 416.127C620.028 415.873 619.995 415.493 619.995 414.986C619.995 413.814 620.337 412.531 621.021 411.137C621.738 409.743 622.292 408.681 622.682 407.953C624.083 407.192 625.288 406.559 626.298 406.052C627.307 405.513 628.301 405.181 629.278 405.054C629.571 404.8 629.538 404.119 629.18 403.01C628.854 401.901 628.757 401.157 628.887 400.777L627.421 401.347L623.611 402.297C621.591 403.533 620.093 404.563 619.116 405.386C618.172 406.179 617.504 407.224 617.113 408.523H616.282C616.478 408.27 616.51 407.858 616.38 407.287C616.25 406.685 616.25 406.226 616.38 405.909L617.113 407.002C618.644 405.165 620.403 403.739 622.389 402.725C624.409 401.68 626.64 400.856 629.082 400.254L629.522 399.208C629.034 398.955 628.496 398.828 627.91 398.828C626.64 399.018 625.695 399.113 625.076 399.113C625.63 398.923 626.249 398.749 626.933 398.59C627.649 398.4 628.236 398.305 628.692 398.305C628.692 397.989 628.659 397.387 628.594 396.499C628.529 395.581 628.496 394.852 628.496 394.313C627.487 394.06 626.917 393.68 626.786 393.173L622.096 392.983ZM631.183 395.121C630.988 395.311 630.89 395.628 630.89 396.072C630.89 396.484 630.955 396.816 631.085 397.07L631.721 396.69C631.655 397.133 631.379 397.751 630.89 398.543C630.434 399.303 630.125 399.905 629.962 400.349C629.799 400.761 629.718 401.284 629.718 401.917C629.718 402.899 629.929 403.771 630.353 404.531C630.776 405.26 631.46 406.147 632.405 407.192C631.949 407.066 631.574 407.034 631.281 407.097C631.346 407.478 631.427 407.826 631.525 408.143H630.695C630.499 408.46 630.402 408.761 630.402 409.046C630.402 409.363 630.516 409.806 630.744 410.376C630.972 410.915 631.085 411.279 631.085 411.47C630.564 411.343 630.206 410.947 630.011 410.281C629.815 409.584 629.685 409.077 629.62 408.761C629.62 408.349 629.718 407.778 629.913 407.05C630.108 406.289 630.174 405.751 630.108 405.434C626.851 406.068 624.246 407.43 622.292 409.521C621.901 410.883 621.705 412.436 621.705 414.178C621.705 415.794 621.966 417.315 622.487 418.741C623.106 419.533 623.92 420.04 624.93 420.262C625.972 420.483 627.226 420.594 628.692 420.594C630.027 420.404 631.281 419.39 632.453 417.553C633.626 415.715 634.375 414.654 634.701 414.369C634.505 413.988 634.701 413.656 635.287 413.371C635.906 413.085 636.248 412.8 636.313 412.515L637.73 405.909C637.567 405.909 637.274 406.02 636.85 406.242C636.427 406.464 636.15 406.575 636.02 406.575C635.824 406.575 635.645 406.384 635.482 406.004C637.176 405.561 638.186 404.563 638.511 403.01C638.316 402.535 637.99 402.06 637.534 401.585C637.111 401.109 636.639 400.602 636.118 400.064C635.759 400.19 635.287 400.555 634.701 401.157C634.115 401.727 633.577 402.012 633.089 402.012C632.698 401.885 632.274 401.585 631.818 401.109C631.395 400.602 631.362 400.032 631.721 399.398C632.046 398.891 632.421 398.432 632.844 398.02C633.268 397.577 633.691 397.418 634.115 397.545C633.235 398.115 632.665 398.527 632.405 398.781C632.144 399.002 631.981 399.398 631.916 399.969C632.111 400.761 632.567 401.22 633.284 401.347C633.577 401.22 633.854 400.887 634.115 400.349C635.092 400.349 635.58 399.969 635.58 399.208C635.58 399.082 635.515 398.701 635.385 398.068C635.254 397.402 635.254 396.975 635.385 396.785C635.059 396.499 634.668 396.357 634.212 396.357C633.821 396.357 633.398 396.468 632.942 396.69C632.519 396.88 632.209 397.006 632.014 397.07C631.818 396.658 632.079 396.325 632.795 396.072C633.545 395.818 633.707 395.438 633.284 394.931C633.089 394.804 632.714 394.773 632.16 394.836C631.639 394.899 631.313 394.994 631.183 395.121ZM611.885 420.784C611.364 421.45 610.99 422.59 610.762 424.206C610.566 425.822 610.371 426.836 610.176 427.248C612.39 428.325 614.638 429.418 616.918 430.527L618.481 422.733C618.155 422.733 617.585 422.78 616.771 422.875C615.989 422.939 615.403 422.97 615.012 422.97C614.459 422.97 614.019 422.939 613.693 422.875C613.367 422.78 613.139 422.416 613.009 421.782C612.879 421.117 612.504 420.784 611.885 420.784ZM625.614 429.291L626.102 428.863C626.102 428.166 626.363 426.867 626.884 424.966C627.438 423.034 627.715 422.036 627.715 421.972C627.226 423.208 626.754 424.459 626.298 425.727C625.842 426.994 625.614 428.182 625.614 429.291ZM618.285 427.248C618.774 425.663 619.246 424.095 619.702 422.543C619.377 423.145 619.083 423.873 618.823 424.729C618.595 425.553 618.416 426.392 618.285 427.248ZM624.588 429.481C625.141 427.865 625.565 426.503 625.858 425.394C626.151 424.285 626.363 423.335 626.493 422.543C625.483 424.634 624.881 426.059 624.685 426.82C624.49 427.549 624.458 428.436 624.588 429.481ZM615.598 402.107C616.999 401.981 618.774 401.505 620.924 400.682C623.106 399.826 624.49 399.335 625.076 399.208C624.555 399.335 623.106 399.889 620.728 400.872C618.383 401.822 616.478 402.297 615.012 402.297C613.872 402.297 612.863 402.392 611.983 402.583C611.136 402.741 610.306 403.042 609.492 403.485C610.306 402.979 611.136 402.598 611.983 402.345C612.863 402.06 613.661 401.917 614.377 401.917C614.67 401.917 615.077 401.981 615.598 402.107ZM629.913 391.795C630.369 391.224 631.102 390.939 632.111 390.939C632.828 390.939 633.365 391.129 633.724 391.509L629.913 391.795ZM622.292 393.933C622.487 394.535 622.389 395.311 621.998 396.262C621.933 396.072 621.998 395.707 622.194 395.169C622.389 394.598 622.422 394.187 622.292 393.933ZM611.69 392.983C611.885 392.571 612.195 392.286 612.618 392.127C613.074 391.969 613.693 391.858 614.475 391.795C614.019 391.858 613.514 392.064 612.96 392.412C612.439 392.729 612.016 392.919 611.69 392.983ZM634.31 397.45C634.766 397.196 635.059 397.07 635.189 397.07C634.733 397.387 634.44 397.513 634.31 397.45Z" fill="#CD4138"/>
</g>
<g filter="url(#filter2_d_802_182)">
<path d="M761.203 379.078L769.286 381.903C769.013 384.631 768.808 386.953 768.672 388.869C768.535 390.785 767.87 392.376 766.677 393.643L763.556 398.465H762.789C761.05 397.134 759.583 396.03 758.39 395.153C757.196 394.276 755.9 393.643 754.502 393.253L753.274 397.832C752.865 398.254 751.023 399.959 747.749 402.947C744.509 405.934 742.685 408.89 742.276 411.812C741.764 412.462 741.287 413.728 740.843 415.612C740.4 417.463 739.974 418.697 739.564 419.314C738.916 419.704 738.217 419.898 737.467 419.898C736.478 419.898 735.523 419.59 734.602 418.973C733.579 417.934 733.068 416.44 733.068 414.491C733.068 413.842 733.119 413.144 733.221 412.397C733.323 411.617 733.511 410.822 733.784 410.01C732.454 410.14 731.124 410.237 729.794 410.302C729.589 410.367 729.385 410.253 729.18 409.961C728.975 409.669 728.771 409.555 728.566 409.62C728.054 410.27 727.304 412.348 726.315 415.855C725.36 419.33 723.792 421.473 721.609 422.285C720.518 422.285 719.648 421.961 719 421.311C720.671 413.257 722.393 405.204 724.167 397.15C724.303 396.468 724.201 395.607 723.86 394.568C723.553 393.497 723.399 392.798 723.399 392.474C723.399 392.116 723.502 391.678 723.706 391.158C726.025 389.177 729.248 387.148 733.375 385.069C737.501 382.959 740.605 381.367 742.685 380.296C746.948 379.419 751.245 378.558 755.576 377.714C757.656 377.714 759.532 378.169 761.203 379.078ZM751.381 378.98C751.04 379.045 750.154 379.224 748.721 379.516C747.289 379.776 745.669 380.068 743.862 380.393C742.088 380.718 740.69 381.481 739.667 382.682C739.019 383.007 738.456 383.332 737.979 383.657C737.501 383.949 737.007 384.095 736.495 384.095C735.302 384.615 733.801 385.427 731.993 386.531C730.186 387.635 728.788 388.447 727.799 388.966C728.208 388.966 728.805 388.788 729.589 388.43C730.374 388.041 730.902 387.846 731.175 387.846C730.732 388.333 729.777 388.869 728.31 389.453C726.844 390.006 725.974 390.736 725.701 391.645C725.701 393.399 725.377 395.494 724.729 397.929C724.116 400.332 723.433 402.995 722.683 405.918C722.888 405.983 723.144 406.032 723.451 406.064C723.757 406.097 723.911 406.21 723.911 406.405C723.638 406.697 723.365 406.844 723.092 406.844L723.706 407.428C723.638 407.688 723.399 407.785 722.99 407.72C722.581 407.655 722.206 408.435 721.865 410.059C721.558 411.682 721.166 413.956 720.688 416.878C720.688 417.69 720.79 418.502 720.995 419.314C720.586 419.963 720.211 420.58 719.87 421.165C720.142 421.457 720.552 421.603 721.097 421.603C721.302 421.603 721.507 421.603 721.711 421.603C722.018 421.473 722.308 421.344 722.581 421.214C722.854 421.051 723.127 420.808 723.399 420.483C723.672 420.158 723.996 419.655 724.371 418.973C724.712 417.999 725.053 417.008 725.394 416.001C725.394 415.547 725.156 415.173 724.678 414.881C725.36 414.426 725.906 413.712 726.315 412.738C726.759 411.731 727.151 410.757 727.492 409.815C727.492 409.62 727.372 409.507 727.134 409.474C726.895 409.442 726.673 409.393 726.469 409.328L726.366 408.5L728.003 408.208C728.651 406.227 729.282 404.197 729.896 402.119C729.896 401.339 729.726 400.641 729.385 400.024C729.589 399.829 729.862 399.91 730.203 400.267C730.578 400.592 730.902 400.641 731.175 400.414L730.612 401.339C732.079 401.664 733.272 401.193 734.193 399.927C733.375 399.472 732.812 399.05 732.505 398.66C731.891 398.66 731.584 398.416 731.584 397.929C731.721 397.475 731.823 397.101 731.891 396.809C731.959 396.517 731.959 396.257 731.891 396.03C732.096 396.03 732.3 396.208 732.505 396.565C732.369 397.54 732.982 398.335 734.347 398.952C735.711 399.537 736.495 400.105 736.7 400.657C736.632 400.105 736.308 399.488 735.728 398.806C735.182 398.092 734.875 397.637 734.807 397.442L737.109 399.342C737.109 399.017 736.973 398.563 736.7 397.978C736.427 397.361 736.291 396.89 736.291 396.565C736.768 397.215 737.194 397.718 737.569 398.075C737.979 398.4 738.183 398.79 738.183 399.245C738.183 399.569 738.115 399.959 737.979 400.414C737.842 400.836 737.689 401.388 737.518 402.07C737.348 402.719 736.683 404.457 735.523 407.282C734.364 410.107 733.784 412.283 733.784 413.809C733.784 415.076 734.023 416.277 734.5 417.414C734.841 416.407 735.148 415.579 735.421 414.93C735.728 414.248 736.291 413.907 737.109 413.907C738.507 413.907 739.36 414.345 739.667 415.222C740.212 413.598 740.758 411.991 741.304 410.4C740.963 410.465 740.605 410.497 740.229 410.497C739.854 410.497 739.599 410.497 739.462 410.497C738.473 410.497 737.689 410.302 737.109 409.912C737.28 409.848 737.45 409.815 737.621 409.815C737.791 409.815 737.979 409.815 738.183 409.815L737.365 409.133C737.638 408.841 738.013 408.695 738.49 408.695C738.831 408.695 739.36 408.857 740.076 409.182C740.826 409.474 741.423 409.555 741.866 409.425C742.071 408.354 742.787 407.022 744.015 405.431C745.277 403.84 745.993 402.914 746.163 402.654L745.192 401.826L743.606 400.414C744.117 400.576 744.782 400.868 745.601 401.29C746.453 401.713 747.016 401.924 747.289 401.924C747.835 401.924 748.363 401.566 748.875 400.852C750.682 399.91 752.063 397.881 753.018 394.763C754.007 391.613 755.099 389.583 756.292 388.674C758.338 388.479 760.146 388.869 761.715 389.843C763.283 390.785 764.733 391.629 766.063 392.376C766.813 391.499 767.308 390.509 767.546 389.405C767.819 388.301 767.956 386.985 767.956 385.459V382.975C767.956 382.455 767.393 382.098 766.268 381.903C765.142 381.676 763.318 381.026 760.794 379.955C758.304 378.85 756.326 378.298 754.86 378.298C753.598 378.298 752.439 378.526 751.381 378.98ZM757.98 389.843V390.282L764.375 395.055C764.375 394.99 764.511 394.828 764.784 394.568C765.057 394.276 765.125 394.032 764.989 393.838C764.238 392.863 763.318 392.116 762.226 391.597C761.135 391.045 759.72 390.46 757.98 389.843ZM757.469 390.866C758.151 391.516 758.935 392.181 759.822 392.863C760.743 393.513 761.561 394.016 762.277 394.373C761.868 393.821 761.288 393.253 760.538 392.668C759.822 392.051 758.799 391.451 757.469 390.866ZM724.678 391.158C724.405 391.418 724.269 391.71 724.269 392.035C724.269 392.392 724.371 392.668 724.576 392.863L724.678 391.158ZM757.98 393.058L756.395 392.279L758.492 393.643L757.98 393.058ZM760.589 394.276L763.301 396.663C763.403 396.598 763.454 396.533 763.454 396.468C763.454 396.403 763.488 396.224 763.556 395.932C762.84 395.672 762.226 395.38 761.715 395.055C761.237 394.731 760.862 394.471 760.589 394.276ZM734.807 400.657V401.047C735.319 401.047 735.574 400.982 735.574 400.852C735.199 400.722 734.943 400.657 734.807 400.657ZM731.073 402.654L729.078 408.5L729.589 409.328C730.135 409.458 730.561 409.523 730.868 409.523C731.414 409.523 732.011 409.393 732.658 409.133C733.341 408.841 733.852 408.63 734.193 408.5C734.841 406.324 735.506 404.132 736.188 401.924C735.574 401.924 735.114 401.924 734.807 401.924C734.671 403.06 734.466 403.937 734.193 404.554C733.92 405.139 733.358 405.658 732.505 406.113C732.88 405.528 733.238 404.928 733.579 404.311C733.92 403.661 734.091 402.995 734.091 402.313C734.091 401.989 734.057 401.729 733.989 401.534C733.647 401.664 733.153 401.859 732.505 402.119C731.891 402.378 731.414 402.557 731.073 402.654ZM738.49 414.784C738.013 414.589 737.655 414.475 737.416 414.443C737.211 414.41 737.007 414.524 736.802 414.784C737.314 415.206 737.945 415.271 738.695 414.979L738.49 414.784ZM735.677 415.807C735.472 416.586 735.37 417.057 735.37 417.219C735.37 417.544 735.54 417.804 735.881 417.999C736.7 418.129 737.331 418.193 737.774 418.193C738.183 418.193 738.524 418.064 738.797 417.804C739.138 416.862 739.138 416.196 738.797 415.807C738.593 415.937 738.251 415.92 737.774 415.758C737.331 415.596 736.87 415.417 736.393 415.222C736.12 415.222 735.881 415.417 735.677 415.807ZM735.165 417.999C736.052 419.005 736.99 419.33 737.979 418.973C737.194 418.843 736.614 418.729 736.239 418.632C735.864 418.534 735.506 418.323 735.165 417.999ZM720.381 419.606V418.583L719.972 419.801L720.381 419.606ZM738.183 408.013C739.445 408.013 740.485 408.419 741.304 409.23L738.183 408.013ZM755.781 378.883C756.258 378.753 756.787 378.818 757.367 379.078C758.049 379.565 758.526 379.906 758.799 380.101L755.781 378.883ZM743.299 401.047L744.987 401.631C744.714 401.696 744.424 401.664 744.117 401.534C743.844 401.404 743.572 401.242 743.299 401.047ZM750.767 394.032C751.177 392.376 751.756 390.866 752.507 389.502C753.291 388.138 754.348 387.067 755.678 386.287C754.553 387.196 753.615 388.593 752.865 390.476C752.797 390.411 752.763 390.314 752.763 390.184C752.319 390.574 751.944 391.158 751.637 391.938C751.33 392.685 751.04 393.383 750.767 394.032ZM731.482 405.821C731.618 405.886 731.738 406.08 731.84 406.405C731.942 406.697 732.13 406.762 732.403 406.6C731.857 407.022 731.516 406.957 731.38 406.405L731.482 405.821Z" fill="#CD4138"/>
</g>
<g filter="url(#filter3_d_802_182)">
<path d="M980.194 368.3C980.741 368.1 981.237 368 981.681 368C982.878 368 983.75 368.516 984.297 369.548C984.57 370.413 984.775 371.544 984.912 372.942C985.049 374.34 985.117 375.555 985.117 376.587V378.933C986.519 381.263 987.904 384.807 989.271 389.566C990.639 394.326 991.596 397.387 992.143 398.752C992.143 401.914 991.613 405.042 990.553 408.137C989.527 411.232 988.673 413.795 987.989 415.825C987.339 416.857 986.895 418.088 986.656 419.52C986.416 420.951 986.297 422.548 986.297 424.312V427.207C985.442 428.372 984.348 429.354 983.015 430.153C981.681 430.918 979.664 431.534 976.963 432L969.886 430.053C969.886 429.254 969.715 427.956 969.374 426.159C969.032 424.329 968.861 423.064 968.861 422.365C967.391 420.934 966.399 419.453 965.886 417.922C965.408 416.391 964.827 413.695 964.143 409.835C964.143 407.239 964.331 404.776 964.707 402.446C965.083 400.116 965.698 397.67 966.553 395.108C967.681 394.542 968.792 393.959 969.886 393.36C969.75 392.528 969.681 391.879 969.681 391.413C969.681 390.715 969.869 390.099 970.245 389.566C970.656 389.034 971.168 388.651 971.784 388.418C972.433 388.152 973.237 388.019 974.194 388.019H975.271C975.681 388.451 976.057 388.951 976.399 389.516C976.775 390.082 977.134 390.715 977.476 391.413C977.75 390.715 977.921 389.699 977.989 388.368C978.057 387.004 978.092 386.205 978.092 385.972L978.604 381.08C977.989 379.183 977.391 377.236 976.809 375.239C976.809 374.107 977.305 373.225 978.297 372.593C978.433 371.428 978.587 370.513 978.758 369.847C978.929 369.148 979.408 368.632 980.194 368.3ZM980.502 368.699C979.51 369.598 979.134 370.762 979.374 372.193C980.331 372.193 981.237 372.709 982.092 373.741C982.707 374.673 983.374 375.588 984.092 376.487V373.941C984.092 372.376 983.989 371.212 983.784 370.446C983.579 369.647 983.134 369.148 982.451 368.949C981.801 368.716 981.151 368.632 980.502 368.699ZM978.912 372.892C977.955 373.591 977.476 374.373 977.476 375.239C977.476 375.804 977.784 376.753 978.399 378.084C979.049 379.415 979.374 380.248 979.374 380.58C979.647 381.246 980.057 381.579 980.604 381.579C981.938 381.179 983.271 380.78 984.604 380.381L982.912 376.487C982.365 375.721 981.784 374.939 981.168 374.14C980.587 373.308 979.835 372.892 978.912 372.892ZM985.015 381.08C984.194 380.88 983.408 380.963 982.656 381.329C981.938 381.695 981.254 382.061 980.604 382.427C980.399 382.827 980.297 383.16 980.297 383.426C980.297 384.058 980.468 384.657 980.809 385.223C981.186 385.789 981.545 386.355 981.886 386.92L985.989 385.573L986.297 385.772L984.297 386.621L987.117 386.072C986.912 385.273 986.775 384.674 986.707 384.275L985.015 381.08ZM979.168 382.827L979.374 383.925C979.51 383.792 979.545 383.592 979.476 383.326C979.408 383.06 979.305 382.893 979.168 382.827ZM979.015 384.874C978.878 385.206 978.775 385.772 978.707 386.571C978.639 387.336 978.604 387.886 978.604 388.218V390.914L981.681 390.814C981.545 389.783 981.374 389.001 981.168 388.468C980.998 387.902 980.536 386.704 979.784 384.874H979.015ZM987.322 386.92C987.117 386.854 986.809 386.821 986.399 386.821C985.613 386.821 984.895 386.92 984.245 387.12C983.63 387.32 982.878 387.653 981.989 388.119C982.262 389.55 982.485 390.531 982.656 391.064C982.827 391.563 983.203 392.046 983.784 392.512C984.057 392.445 984.468 392.412 985.015 392.412C985.527 392.412 986.194 392.528 987.015 392.761C987.869 392.961 988.604 393.127 989.22 393.261L988.809 391.413L987.322 386.92ZM971.989 388.967C970.963 389.699 970.519 390.581 970.656 391.613C971.613 390.448 972.861 389.866 974.399 389.866C975.049 389.866 975.51 389.999 975.784 390.265C975.51 389.2 974.775 388.668 973.579 388.668C973.1 388.668 972.57 388.768 971.989 388.967ZM973.784 390.914C973.305 391.047 972.878 391.28 972.502 391.613C972.16 391.946 971.818 392.428 971.476 393.061C971.203 393.527 971.271 393.826 971.681 393.959C972.092 394.093 972.758 394.259 973.681 394.459C973.545 394.059 973.664 393.66 974.04 393.261C974.416 392.861 974.827 392.445 975.271 392.012C974.758 391.68 974.262 391.314 973.784 390.914ZM979.989 391.314C979.579 391.447 979.237 391.547 978.963 391.613C978.724 391.68 978.57 391.813 978.502 392.012C978.844 392.212 979.271 392.245 979.784 392.112C980.331 391.979 980.895 391.813 981.476 391.613C980.553 391.413 980.057 391.314 979.989 391.314ZM976.707 392.512C976.297 393.277 975.955 393.826 975.681 394.159C975.408 394.492 975.015 394.841 974.502 395.207C973.955 395.54 973.271 395.474 972.451 395.008C971.664 394.509 971.134 394.326 970.861 394.459V395.108C972.331 397.005 973.715 398.286 975.015 398.952C976.314 399.584 977.51 399.8 978.604 399.601C978.604 399.867 978.399 400.067 977.989 400.2C977.784 400.732 977.921 401.215 978.399 401.647C978.912 402.047 979.374 402.413 979.784 402.746C979.647 402.879 979.527 402.962 979.425 402.995C979.322 403.029 979.237 403.045 979.168 403.045C979.237 403.678 979.527 404.31 980.04 404.942C980.553 405.541 980.946 406.007 981.22 406.34L981.015 406.54C980.262 406.274 979.613 405.774 979.066 405.042C978.553 404.277 978.194 403.694 977.989 403.295C975.733 406.157 974.604 409.452 974.604 413.179C974.604 415.376 974.998 417.256 975.784 418.821C976.262 418.887 977.1 419.054 978.297 419.32C979.493 419.586 980.365 419.719 980.912 419.719C981.562 419.719 982.194 419.619 982.809 419.42C984.998 418.188 986.297 416.607 986.707 414.677C987.117 412.713 987.322 410.001 987.322 406.54C987.254 406.673 987.134 406.773 986.963 406.839C986.792 406.906 986.604 406.972 986.399 407.039C986.741 406.573 987.032 406.074 987.271 405.541C987.51 404.976 987.63 404.46 987.63 403.994C987.63 403.728 987.596 403.495 987.527 403.295L981.989 396.406L980.502 398.153C979.681 398.486 979.151 398.519 978.912 398.253L981.374 395.108C980.998 394.675 980.228 394.192 979.066 393.66C977.938 393.127 977.151 392.745 976.707 392.512ZM979.989 392.761C979.989 393.028 980.245 393.227 980.758 393.36C981.305 393.493 981.51 393.294 981.374 392.761H979.989ZM974.502 394.059C975.288 393.66 975.579 393.261 975.374 392.861C975.168 392.928 974.929 393.111 974.656 393.41C974.416 393.71 974.365 393.926 974.502 394.059ZM985.989 393.161L984.604 392.861L984.399 393.061L985.989 393.161ZM982.092 393.061C981.955 393.194 981.852 393.394 981.784 393.66C981.715 393.926 981.784 394.126 981.989 394.259C982.262 394.259 982.707 393.959 983.322 393.36C983.049 393.094 982.639 392.994 982.092 393.061ZM989.63 394.658C989.425 394.592 988.758 394.409 987.63 394.109C986.536 393.81 985.698 393.66 985.117 393.66C984.297 393.66 983.63 393.926 983.117 394.459C982.98 395.024 983.134 395.624 983.579 396.256C984.057 396.855 984.433 397.387 984.707 397.853C984.98 398.319 985.51 398.552 986.297 398.552C986.775 398.552 987.493 398.386 988.451 398.053C989.442 397.72 990.194 397.554 990.707 397.554L990.399 395.807L989.63 394.658ZM969.271 394.459C968.485 394.825 967.801 395.191 967.22 395.557C966.639 395.923 966.348 396.555 966.348 397.454C966.143 397.787 966.04 398.153 966.04 398.552C966.04 399.051 966.177 399.501 966.451 399.9C966.724 400.3 967.1 400.499 967.579 400.499C966.963 399.834 966.604 399.384 966.502 399.151C966.399 398.885 966.416 398.586 966.553 398.253L966.963 398.353C966.963 398.219 966.963 397.953 966.963 397.554C966.963 397.154 967.1 396.905 967.374 396.805C967.784 398.935 968.382 400.716 969.168 402.147C969.955 403.578 970.57 404.676 971.015 405.441C971.459 406.174 972.006 406.606 972.656 406.739C972.348 406.54 972.194 406.14 972.194 405.541V404.393C972.331 403.495 972.861 403.195 973.784 403.495C973.647 402.463 973.562 401.631 973.527 400.998C973.493 400.333 973.339 399.651 973.066 398.952C972.553 398.619 972.04 398.153 971.527 397.554C971.015 396.921 970.262 395.89 969.271 394.459ZM980.707 397.254L981.374 396.106L980.399 397.354L980.707 397.254ZM990.707 398.353C989.237 398.353 987.698 398.702 986.092 399.401L987.322 400.998C988.04 400.998 988.775 400.782 989.527 400.349C990.314 399.917 990.878 399.634 991.22 399.501L990.707 398.353ZM974.758 402.945C974.895 401.514 975.168 400.599 975.579 400.2C975.168 400 974.827 399.933 974.553 400C974.314 400.067 974.194 400.233 974.194 400.499C974.331 401.331 974.519 402.147 974.758 402.945ZM990.092 400.799H990.502C990.639 401.165 990.348 401.481 989.63 401.747C988.946 402.014 988.57 402.313 988.502 402.646C988.775 403.278 988.912 404.127 988.912 405.192C988.844 406.989 988.775 408.736 988.707 410.434C989.322 408.171 989.835 406.24 990.245 404.643C990.69 403.045 991.015 401.664 991.22 400.499C990.878 400.433 990.621 400.449 990.451 400.549C990.28 400.649 990.16 400.732 990.092 400.799ZM967.784 401.647C967.647 401.581 967.374 401.381 966.963 401.048C966.553 400.682 966.194 400.666 965.886 400.998C965.818 401.431 965.63 402.446 965.322 404.044C965.015 405.641 964.861 406.889 964.861 407.788V408.886C965.545 411.881 966.143 414.444 966.656 416.574C967.203 418.671 968.245 420.401 969.784 421.766H971.066C972.126 421.766 973.049 421.65 973.835 421.417C974.656 421.184 975.339 420.718 975.886 420.019C974.485 417.456 973.784 414.777 973.784 411.981C973.784 410.55 973.955 409.352 974.297 408.387C974.023 408.919 973.767 409.485 973.527 410.084C973.288 410.65 973.203 411.166 973.271 411.632C973.339 412.198 973.374 412.614 973.374 412.88C973.374 413.213 973.271 413.446 973.066 413.579C972.553 413.046 972.297 412.397 972.297 411.632C972.297 410.966 972.416 410.301 972.656 409.635C972.929 408.936 973.203 408.254 973.476 407.588L972.656 407.788C972.143 407.289 971.681 407.039 971.271 407.039C970.792 407.039 970.28 407.422 969.733 408.187C969.22 408.919 968.861 409.352 968.656 409.485L968.451 409.186L970.348 406.44C969.835 405.774 969.374 405.009 968.963 404.144C968.553 403.278 968.16 402.446 967.784 401.647ZM975.886 401.847C975.545 402.18 975.579 402.929 975.989 404.094C976.262 404.027 976.502 403.877 976.707 403.644C976.946 403.411 977.237 402.912 977.579 402.147C977.442 401.88 977.168 401.764 976.758 401.797C976.382 401.83 976.092 401.847 975.886 401.847ZM973.374 404.493C972.963 404.626 972.792 404.892 972.861 405.292C972.998 405.658 973.168 406.007 973.374 406.34C973.921 406.14 974.228 405.791 974.297 405.292C974.228 405.092 974.143 404.859 974.04 404.593C973.938 404.327 973.715 404.293 973.374 404.493ZM983.476 420.368H984.297C984.297 420.202 984.297 420.019 984.297 419.819C983.818 419.686 983.545 419.869 983.476 420.368ZM983.784 427.607C983.989 426.442 984.092 425.41 984.092 424.512C984.023 423.014 983.989 421.833 983.989 420.967C983.647 422.199 983.476 423.463 983.476 424.761C983.476 425.826 983.579 426.775 983.784 427.607ZM978.399 421.766C978.331 421.5 978.211 421.4 978.04 421.466C977.869 421.533 977.715 421.6 977.579 421.666V430.552C977.715 430.552 977.989 430.519 978.399 430.452V421.766ZM979.015 421.766C979.015 422.465 978.998 423.18 978.963 423.913C978.929 424.612 978.912 425.327 978.912 426.059C978.912 427.69 979.066 429.088 979.374 430.253L980.707 430.053C981.63 429.853 982.28 429.487 982.656 428.955C983.032 428.389 983.22 427.707 983.22 426.908C983.22 426.342 983.117 425.41 982.912 424.112C982.707 422.814 982.673 421.899 982.809 421.367L979.015 421.766ZM976.604 421.666C976.604 422.698 976.57 423.713 976.502 424.711C976.433 425.677 976.365 426.642 976.297 427.607C976.297 428.639 976.399 429.654 976.604 430.652C977.049 428.689 977.271 426.825 977.271 425.061L977.066 421.666H976.604ZM973.271 423.314C972.861 423.513 972.297 423.613 971.579 423.613C970.963 423.613 970.553 423.38 970.348 422.914C970.348 423.846 970.416 424.961 970.553 426.259C970.69 427.557 970.827 428.689 970.963 429.654L975.579 430.552C975.647 430.153 975.715 429.288 975.784 427.956C975.852 426.625 975.886 425.926 975.886 425.86V422.066L973.271 423.314ZM973.271 413.928L974.758 417.972C974.451 417.772 974.177 417.34 973.938 416.674C973.698 415.975 973.476 415.326 973.271 414.727V413.928ZM978.092 398.353C978.297 397.754 978.673 397.154 979.22 396.555C979.801 395.923 980.433 395.44 981.117 395.108C980.502 395.507 979.921 396.056 979.374 396.755C978.861 397.421 978.433 397.953 978.092 398.353ZM980.399 398.752C980.536 398.219 981.032 397.754 981.886 397.354C981.75 397.754 981.254 398.219 980.399 398.752Z" fill="#CD4138"/>
</g>
<defs>
<filter id="filter0_d_802_182" x="824.714" y="373.142" width="64" height="53.7141" filterUnits="userSpaceOnUse" color-interpolation-filters="sRGB">
<feFlood flood-opacity="0" result="BackgroundImageFix"/>
<feColorMatrix in="SourceAlpha" type="matrix" values="0 0 0 0 0 0 0 0 0 0 0 0 0 0 0 0 0 0 127 0" result="hardAlpha"/>
<feOffset/>
<feGaussianBlur stdDeviation="2.28571"/>
<feColorMatrix type="matrix" values="0 0 0 0 0.803922 0 0 0 0 0.254902 0 0 0 0 0.219608 0 0 0 0.9 0"/>
<feBlend mode="normal" in2="BackgroundImageFix" result="effect1_dropShadow_802_182"/>
<feBlend mode="normal" in="SourceGraphic" in2="effect1_dropShadow_802_182" result="shape"/>
</filter>
<filter id="filter1_d_802_182" x="602.429" y="363.429" width="41.1429" height="73.1429" filterUnits="userSpaceOnUse" color-interpolation-filters="sRGB">
<feFlood flood-opacity="0" result="BackgroundImageFix"/>
<feColorMatrix in="SourceAlpha" type="matrix" values="0 0 0 0 0 0 0 0 0 0 0 0 0 0 0 0 0 0 127 0" result="hardAlpha"/>
<feOffset/>
<feGaussianBlur stdDeviation="2.28571"/>
<feColorMatrix type="matrix" values="0 0 0 0 0.803922 0 0 0 0 0.254902 0 0 0 0 0.219608 0 0 0 0.9 0"/>
<feBlend mode="normal" in2="BackgroundImageFix" result="effect1_dropShadow_802_182"/>
<feBlend mode="normal" in="SourceGraphic" in2="effect1_dropShadow_802_182" result="shape"/>
</filter>
<filter id="filter2_d_802_182" x="714.429" y="373.142" width="59.4286" height="53.7141" filterUnits="userSpaceOnUse" color-interpolation-filters="sRGB">
<feFlood flood-opacity="0" result="BackgroundImageFix"/>
<feColorMatrix in="SourceAlpha" type="matrix" values="0 0 0 0 0 0 0 0 0 0 0 0 0 0 0 0 0 0 127 0" result="hardAlpha"/>
<feOffset/>
<feGaussianBlur stdDeviation="2.28571"/>
<feColorMatrix type="matrix" values="0 0 0 0 0.803922 0 0 0 0 0.254902 0 0 0 0 0.219608 0 0 0 0.9 0"/>
<feBlend mode="normal" in2="BackgroundImageFix" result="effect1_dropShadow_802_182"/>
<feBlend mode="normal" in="SourceGraphic" in2="effect1_dropShadow_802_182" result="shape"/>
</filter>
<filter id="filter3_d_802_182" x="959.571" y="363.429" width="37.1429" height="73.1429" filterUnits="userSpaceOnUse" color-interpolation-filters="sRGB">
<feFlood flood-opacity="0" result="BackgroundImageFix"/>
<feColorMatrix in="SourceAlpha" type="matrix" values="0 0 0 0 0 0 0 0 0 0 0 0 0 0 0 0 0 0 127 0" result="hardAlpha"/>
<feOffset/>
<feGaussianBlur stdDeviation="2.28571"/>
<feColorMatrix type="matrix" values="0 0 0 0 0.803922 0 0 0 0 0.254902 0 0 0 0 0.219608 0 0 0 0.9 0"/>
<feBlend mode="normal" in2="BackgroundImageFix" result="effect1_dropShadow_802_182"/>
<feBlend mode="normal" in="SourceGraphic" in2="effect1_dropShadow_802_182" result="shape"/>
</filter>
</defs>
</svg>
