<svg width="320" height="320" viewBox="0 0 320 320" fill="none" xmlns="http://www.w3.org/2000/svg">
<rect width="320" height="320" fill="#E5E5E5"/>
<rect width="320" height="320" fill="white"/>
<mask id="path-1-inside-1_0_1" fill="white">
<path d="M80 80H240V240H80V80Z"/>
</mask>
<path d="M81.4142 241.414L241.414 81.4142L238.586 78.5858L78.5858 238.586L81.4142 241.414ZM241.414 238.586L81.4142 78.5858L78.5858 81.4142L238.586 241.414L241.414 238.586ZM80 80V76H76V80H80ZM240 80H244V76H240V80ZM240 240V244H244V240H240ZM80 240H76V244H80V240ZM80 84H240V76H80V84ZM236 80V240H244V80H236ZM240 236H80V244H240V236ZM84 240V80H76V240H84Z" fill="#E84141" mask="url(#path-1-inside-1_0_1)"/>
</svg>
